<?xml version="1.0" encoding="utf-8"?> <!-- Generator: IcoMoon.io --> <!DOCTYPE svg PUBLIC "-//W3C//DTD SVG 1.1//EN" "http://www.w3.org/Graphics/SVG/1.1/DTD/svg11.dtd"> <svg width="32" height="32" viewBox="0 0 32 32" xmlns="http://www.w3.org/2000/svg" xmlns:xlink="http://www.w3.org/1999/xlink" fill="#fcfcfc"><g><path d="M 15.304,11.874C 13.131,8.010, 10.808,4.861, 10.637,4.63C 7.131,6.286, 4.514,9.515, 3.699,13.408C 4.029,13.414, 9.267,13.477, 15.304,11.874 z M 16.87,16.096c 0.166-0.053, 0.33-0.101, 0.498-0.149c-0.315-0.715-0.661-1.43-1.021-2.136c-6.474,1.936-12.686,1.797-12.907,1.79 C 3.435,15.734, 3.43,15.866, 3.43,16c0,3.234, 1.222,6.178, 3.226,8.405c-0.003-0.003-0.010-0.011-0.010-0.011 S 10.088,18.291, 16.87,16.096z M 8.274,25.909l 0.003-0.005c-0.094-0.074-0.194-0.139-0.285-0.216 C 8.158,25.822, 8.274,25.909, 8.274,25.909z M 12.989,3.795C 12.978,3.798, 12.966,3.8, 12.957,3.803C 12.974,3.798, 12.987,3.797, 12.989,3.795 L 12.989,3.795z M 24.302,6.566c-2.214-1.95-5.118-3.136-8.301-3.136c-1.022,0-2.013,0.125-2.963,0.355 c 0.19,0.253, 2.55,3.389, 4.701,7.333C 22.478,9.341, 24.27,6.618, 24.302,6.566z M 16.002,30.72C 7.87,30.72, 1.28,24.13, 1.28,16 s 6.59-14.72, 14.722-14.72c 8.13,0, 14.718,6.59, 14.718,14.72S 24.131,30.72, 16.002,30.72z M 18.139,18.056c-7.378,2.571-9.814,7.742-9.862,7.848 c 2.131,1.666, 4.81,2.666, 7.725,2.666c 1.741,0, 3.398-0.354, 4.906-0.994c-0.186-1.102-0.917-4.954-2.685-9.549 C 18.195,18.038, 18.166,18.046, 18.139,18.056z M 18.704,12.99c 0.294,0.6, 0.574,1.208, 0.835,1.824c 0.094,0.218, 0.182,0.434, 0.272,0.65 c 4.342-0.546, 8.616,0.381, 8.755,0.411c-0.029-2.982-1.094-5.718-2.858-7.859C 25.683,8.053, 23.667,10.965, 18.704,12.99z M 20.578,17.448 c 1.651,4.536, 2.32,8.227, 2.446,8.979c 2.824-1.906, 4.829-4.928, 5.387-8.434C 28.163,17.912, 24.642,16.797, 20.578,17.448z"></path></g></svg>