<?xml version="1.0" encoding="utf-8"?> <!-- Generator: IcoMoon.io --> <!DOCTYPE svg PUBLIC "-//W3C//DTD SVG 1.1//EN" "http://www.w3.org/Graphics/SVG/1.1/DTD/svg11.dtd"> <svg width="32" height="32" viewBox="0 0 32 32" xmlns="http://www.w3.org/2000/svg" xmlns:xlink="http://www.w3.org/1999/xlink" fill="#fcfcfc"><g><path d="M 0.375,16q0,1.625 1.141,2.766t 2.766,1.141t 2.766-1.141t 1.141-2.766t-1.141-2.766t-2.766-1.141t-2.766,1.141t-1.141,2.766zM 12.094,16q0,1.625 1.141,2.766t 2.766,1.141t 2.766-1.141t 1.141-2.766t-1.141-2.766t-2.766-1.141t-2.766,1.141t-1.141,2.766zM 23.813,16q0,1.625 1.141,2.766t 2.766,1.141t 2.766-1.141t 1.141-2.766t-1.141-2.766t-2.766-1.141t-2.766,1.141t-1.141,2.766z"></path></g></svg>