<?xml version="1.0" encoding="utf-8"?> <!-- Generator: IcoMoon.io --> <!DOCTYPE svg PUBLIC "-//W3C//DTD SVG 1.1//EN" "http://www.w3.org/Graphics/SVG/1.1/DTD/svg11.dtd"> <svg width="32" height="32" viewBox="0 0 32 32" xmlns="http://www.w3.org/2000/svg" xmlns:xlink="http://www.w3.org/1999/xlink" fill="#fcfcfc"><g><path d="M0,22q0,2.484 1.758,4.242t 4.242,1.758l 20,0 q 2.484,0 4.242-1.758t 1.758-4.242l0-12 q0-2.484 -1.758-4.242t-4.242-1.758l-20,0 q-2.484,0 -4.242,1.758t-1.758,4.242l0,12 zM 4,20l0-8 l 12,8l 12-8l0,7.984 l-6-2l 5.422,5.422q-0.594,0.594 -1.422,0.594l-20,0 q-0.844,0 -1.406-0.594 l 5.406-5.406zM 4.734,8.484q 0.563-0.484 1.266-0.484l 20,0 q 0.703,0 1.266,0.484l-11.266,7.516z"></path></g></svg>