<?xml version="1.0" encoding="utf-8"?> <!-- Generator: IcoMoon.io --> <!DOCTYPE svg PUBLIC "-//W3C//DTD SVG 1.1//EN" "http://www.w3.org/Graphics/SVG/1.1/DTD/svg11.dtd"> <svg width="32" height="32" viewBox="0 0 32 32" xmlns="http://www.w3.org/2000/svg" xmlns:xlink="http://www.w3.org/1999/xlink" fill="#fcfcfc"><g><path d="M0,16q 0.047,0.125 0.148,0.352t 0.484,0.906t 0.844,1.344t 1.242,1.563t 1.664,1.672t 2.133,1.563t 2.625,1.344t 3.156,0.906t 3.703,0.352t 3.703-0.344t 3.164-0.922t 2.617-1.328t 2.133-1.578t 1.656-1.656t 1.25-1.578t 0.836-1.328t 0.484-0.922l 0.156-0.344q-0.047-0.125 -0.148-0.352t-0.484-0.906t-0.844-1.344t-1.242-1.563t-1.664-1.672t-2.133-1.563t-2.625-1.344t-3.156-0.906t-3.703-0.352 t-3.703,0.344t-3.164,0.922t-2.617,1.328t-2.133,1.578t-1.656,1.656t-1.25,1.578t-0.836,1.328t-0.484,0.922zM 10,16q0-2.484 1.758-4.242t 4.242-1.758t 4.242,1.758t 1.758,4.242t-1.758,4.242t-4.242,1.758t-4.242-1.758t-1.758-4.242zM 12,16q0,1.656 1.172,2.828t 2.828,1.172t 2.828-1.172t 1.172-2.828t-1.172-2.828 t-2.828-1.172t-2.828,1.172l 2.828,2.828l-4,0 z"></path></g></svg>