<?xml version="1.0" encoding="utf-8"?> <!-- Generator: IcoMoon.io --> <!DOCTYPE svg PUBLIC "-//W3C//DTD SVG 1.1//EN" "http://www.w3.org/Graphics/SVG/1.1/DTD/svg11.dtd"> <svg width="32" height="32" viewBox="0 0 32 32" xmlns="http://www.w3.org/2000/svg" xmlns:xlink="http://www.w3.org/1999/xlink" fill="#fcfcfc"><g><path d="M 30.72,6.869c-1.085,0.482-2.248,0.805-3.47,0.952c 1.248-0.747, 2.206-1.931, 2.656-3.341c-1.166,0.691-2.459,1.195-3.834,1.466 c-1.102-1.174-2.672-1.907-4.41-1.907c-3.336,0-6.040,2.704-6.040,6.038c0,0.474, 0.053,0.934, 0.157,1.376 c-5.019-0.251-9.47-2.656-12.448-6.31C 2.81,6.034, 2.51,7.072, 2.51,8.179c0,2.096, 1.067,3.944, 2.688,5.027 c-0.99-0.032-1.922-0.302-2.736-0.755c0,0.026,0,0.050,0,0.075c0,2.926, 2.083,5.366, 4.845,5.923c-0.506,0.138-1.040,0.211-1.592,0.211 c-0.389,0-0.766-0.037-1.136-0.107c 0.768,2.4, 3,4.146, 5.642,4.194c-2.067,1.621-4.67,2.586-7.501,2.586 c-0.488,0-0.968-0.029-1.44-0.085c 2.672,1.714, 5.846,2.714, 9.259,2.714c 11.109,0, 17.184-9.203, 17.184-17.186 c0-0.261-0.005-0.522-0.018-0.781C 28.886,9.144, 29.909,8.080, 30.72,6.869z"></path></g></svg>