<?xml version="1.0" encoding="utf-8"?>
<!-- Generator: IcoMoon.io  -->
<!DOCTYPE svg PUBLIC "-//W3C//DTD SVG 1.1//EN" "http://www.w3.org/Graphics/SVG/1.1/DTD/svg11.dtd">
<svg width="496" height="48" viewBox="0 0 496 48" data-du="ï€" style="margin-left: 8px; margin-top: 8px;" xmlns="http://www.w3.org/2000/svg" fill="#fcfcfc"><path d="M0,1664q0,159 112.5,271.5t 271.5,112.5l1280,0 q 159,0 271.5-112.5t 112.5-271.5l0,-1280 q0-159 -112.5-271.5t-271.5-112.5l-1280,0 q-159,0 -271.5,112.5t-112.5,271.5l0,1280 zM 256,1664l0,-1280 q0-53 37.5-90.5t 90.5-37.5l1280,0 q 53,0 90.5,37.5t 37.5,90.5l0,1280  q0,53 -37.5,90.5t-90.5,37.5l-1280,0 q-53,0 -90.5-37.5t-37.5-90.5zM 384,1536q0,53 37.5,90.5t 90.5,37.5l1024,0 q 53,0 90.5-37.5t 37.5-90.5l0,-60 q-13-29 -71.5-172.5t-101.5-230t-83-133.5q-33-38 -70.5-40.5t-73,24.5t-74.5,72t-75,100t-75,110.5t-73,101.5t-71,75 t-68,29q-37,0 -108-91q-10-13 -29-40q-72-95 -104-117q-48-33 -75,24q-15,32 -59.5,142t-68.5,164l0,42 zM 384,576q0,80 56,136t 136,56t 136-56t 56-136t-56-136t-136-56t-136,56t-56,136z" transform="scale(0.0078125 0.0078125)"></path><path d="M 32.133,6.078q 0.273,1.031 1.039,1.797l 6.828,7.078l 6.828-7.078q 0.766-0.766 1.039-1.797t0-2.063t-1.039-1.797t-1.797-1.039t-2.066,0t-1.801,1.039l-1.164,1.414l-1.164-1.414q-0.766-0.766 -1.801-1.039t-2.066,0t-1.797,1.039t-1.039,1.797t0,2.063z"></path><path d="M 64.133,6.066q 0.273,1.035 1.039,1.809l 6.828,7.125l 6.828-7.125q 0.766-0.773 1.039-1.809t0-2.074t-1.039-1.813t-1.797-1.047t-2.066,0t-1.801,1.047l-1.164,1.422l-1.164-1.422q-0.766-0.773 -1.801-1.047t-2.066,0t-1.797,1.047t-1.039,1.813t0,2.074zM 66,5.027q0-0.832 0.586-1.426q 0.586-0.586 1.418-0.586t 1.418,0.586l 2.578,2.852 l 2.578-2.852q 0.586-0.586 1.418-0.586t 1.418,0.586q 0.586,0.594 0.586,1.426t-0.586,1.426l-5.414,5.695l-5.414-5.695q-0.586-0.594 -0.586-1.426z"></path><path d="M 96,15q0,0.414 0.293,0.707t 0.707,0.293l 14,0 q 0.414,0 0.707-0.293t 0.293-0.707l0-11 q0-0.414 -0.293-0.707t-0.707-0.293l-4,0 l0-2 q0-0.414 -0.293-0.707t-0.707-0.293l-4,0 q-0.414,0 -0.707,0.293t-0.293,0.707l0,2 l-2,0 l0-1 l-1,0 l0,1 l-1,0 q-0.414,0 -0.707,0.293t-0.293,0.707l0,11 zM 98,14l0-5 l 3.188,0  q-0.188,0.5 -0.188,1q0,1.242 0.879,2.121t 2.121,0.879t 2.121-0.879t 0.879-2.121q0-0.484 -0.18-1l 3.18,0 l0,5 l-12,0 zM 98,8l0-3 l 12,0 l0,3 l-3.781,0 q-0.594-0.656 -1.414-0.887t-1.633,0.004t-1.391,0.883l-3.781,0 zM 99,7l 1,0 l0-1 l-1,0 l0,1 zM 101,7l 1,0 l0-1 l-1,0 l0,1 zM 102,10q0-0.828 0.586-1.414 t 1.414-0.586t 1.414,0.586t 0.586,1.414t-0.586,1.414t-1.414,0.586t-1.414-0.586t-0.586-1.414zM 103,3l0-1 l 2,0 l0,1 l-2,0 zM 107,7l 2,0 l0-1 l-2,0 l0,1 z"></path><path d="M 128,13q0,1.242 0.879,2.121t 2.121,0.879l 10,0 q 1.242,0 2.121-0.879t 0.879-2.121l0-10 q0-1.242 -0.879-2.121t-2.121-0.879l-0.555,0 q 0.914,1.023 1.289,2.336q 0.266,0.289 0.266,0.664l0,10 q0,0.414 -0.293,0.707t-0.707,0.293l-10,0 q-0.414,0 -0.707-0.293t-0.293-0.707l0-10 q0-0.375 0.266-0.664q 0.375-1.313 1.289-2.336 l-0.555,0 q-1.242,0 -2.121,0.879t-0.879,2.121l0,10 zM 132,4q0,0.617 0.41,1.668t 1,2.113t 1.18,2.031t 1.004,1.578l 0.406,0.609q 0.164-0.234 0.434-0.637t 0.957-1.523t 1.215-2.090t 0.961-2.051t 0.434-1.699q0-1.656 -1.172-2.828t-2.828-1.172t-2.828,1.172t-1.172,2.828zM 134,4q0-0.828 0.586-1.414t 1.414-0.586t 1.414,0.586 t 0.586,1.414t-0.586,1.414t-1.414,0.586t-1.414-0.586t-0.586-1.414z"></path><path d="M 160,8q 0.023,0.063 0.074,0.176t 0.242,0.453t 0.422,0.672t 0.621,0.781t 0.832,0.836t 1.066,0.781t 1.313,0.672t 1.578,0.453t 1.852,0.176t 1.852-0.172t 1.582-0.461t 1.309-0.664t 1.066-0.789t 0.828-0.828t 0.625-0.789t 0.418-0.664t 0.242-0.461l 0.078-0.172q-0.023-0.063 -0.074-0.176t-0.242-0.453t-0.422-0.672t-0.621-0.781t-0.832-0.836t-1.066-0.781t-1.313-0.672t-1.578-0.453t-1.852-0.176 t-1.852,0.172t-1.582,0.461t-1.309,0.664t-1.066,0.789t-0.828,0.828t-0.625,0.789t-0.418,0.664t-0.242,0.461zM 165,8q0-1.242 0.879-2.121t 2.121-0.879t 2.121,0.879t 0.879,2.121t-0.879,2.121t-2.121,0.879t-2.121-0.879t-0.879-2.121zM 166,8q0,0.828 0.586,1.414t 1.414,0.586t 1.414-0.586t 0.586-1.414t-0.586-1.414 t-1.414-0.586t-1.414,0.586l 1.414,1.414l-2,0 z"></path><path d="M 192,13q0,1.242 0.879,2.121t 2.121,0.879l 10,0 q 1.242,0 2.121-0.879t 0.879-2.121l0-10 q0-1.242 -0.879-2.121t-2.121-0.879l-10,0 q-1.242,0 -2.121,0.879t-0.879,2.121l0,10 zM 194,13l0-10 q0-0.414 0.293-0.707t 0.707-0.293l 10,0 q 0.414,0 0.707,0.293t 0.293,0.707l0,10  q0,0.414 -0.293,0.707t-0.707,0.293l-10,0 q-0.414,0 -0.707-0.293t-0.293-0.707zM 196,12l 8,0 l0-2 l-8,0 l0,2 zM 196,9l 8,0 l0-2 l-8,0 l0,2 zM 196,6l 8,0 l0-2 l-8,0 l0,2 z"></path><path d="M 228,12l 8,0 l0-2 l-8,0 l0,2 zM 228,9l 8,0 l0-2 l-8,0 l0,2 zM 228,6l 8,0 l0-2 l-8,0 l0,2 z"></path><path d="M 256,13l0-10 q0-1.242 0.879-2.121t 2.121-0.879l 6.172,0 l-2,2l-4.172,0 q-0.414,0 -0.707,0.293t-0.293,0.707l0,10 q0,0.414 0.293,0.707t 0.707,0.293l 10,0 q 0.414,0 0.707-0.293t 0.293-0.707l0-4.172 l 2-2l0,6.172 q0,1.242 -0.879,2.121t-2.121,0.879l-10,0 q-1.242,0 -2.121-0.879t-0.879-2.121z M 259,13l 2-6l 7-7l 4,4l-7,7zM 261,11l 3-1l-2-2zM 263,7l 2,2l 3-3l-2-2z"></path><path d="M 288.188,8q0,0.813 0.57,1.383t 1.383,0.57t 1.383-0.57t 0.57-1.383t-0.57-1.383t-1.383-0.57t-1.383,0.57t-0.57,1.383zM 294.047,8q0,0.813 0.57,1.383t 1.383,0.57t 1.383-0.57t 0.57-1.383t-0.57-1.383t-1.383-0.57t-1.383,0.57t-0.57,1.383zM 299.906,8q0,0.813 0.57,1.383t 1.383,0.57t 1.383-0.57t 0.57-1.383t-0.57-1.383t-1.383-0.57t-1.383,0.57t-0.57,1.383z"></path><path d="M 320,8q0-1.625 0.633-3.109t 1.707-2.555t 2.555-1.703t 3.105-0.633q 1.633,0 3.113,0.633t 2.551,1.703t 1.703,2.551t 0.633,3.113q0,1.625 -0.633,3.105t-1.703,2.555t-2.555,1.707t-3.109,0.633t-3.105-0.633t-2.555-1.707t-1.707-2.555t-0.633-3.105zM 322,8q0,1.633 0.805,3.012t 2.184,2.184t 3.012,0.805t 3.012-0.805 t 2.184-2.184t 0.805-3.012t-0.805-3.012t-2.184-2.184t-3.012-0.805t-3.012,0.805t-2.184,2.184t-0.805,3.012zM 325.020,6.805q 0.059-0.297 0.277-0.516l 2-2q 0.289-0.289 0.703-0.289q 0.422,0 0.711,0.289l 2,2q 0.211,0.219 0.27,0.516t-0.059,0.578q-0.109,0.281 -0.363,0.449t-0.559,0.168l-1,0 l0,3 q0,0.414 -0.293,0.707 t-0.707,0.293t-0.707-0.293t-0.293-0.707l0-3 l-1,0 q-0.305,0 -0.555-0.168t-0.367-0.449t-0.059-0.578z"></path><path d="M 352,8q0-1.625 0.633-3.109t 1.707-2.555t 2.555-1.703t 3.105-0.633q 1.633,0 3.113,0.633t 2.551,1.703t 1.703,2.551t 0.633,3.113q0,1.625 -0.633,3.105t-1.703,2.555t-2.555,1.707t-3.109,0.633t-3.105-0.633t-2.555-1.707t-1.707-2.555t-0.633-3.105zM 354,8q0,1.633 0.805,3.012t 2.184,2.184t 3.012,0.805t 3.012-0.805 t 2.184-2.184t 0.805-3.012t-0.805-3.012t-2.184-2.184t-3.012-0.805t-3.012,0.805t-2.184,2.184t-0.805,3.012zM 357.020,9.195q-0.059-0.297 0.059-0.578t 0.367-0.449t 0.555-0.168l 1,0 l0-3 q0-0.414 0.293-0.707t 0.707-0.293t 0.707,0.293t 0.293,0.707l0,3 l 1,0 q 0.305,0 0.559,0.168t 0.363,0.449q 0.117,0.281 0.059,0.578t-0.27,0.516 l-2,2q-0.289,0.289 -0.711,0.289q-0.414,0 -0.703-0.289l-2-2q-0.219-0.219 -0.277-0.516z"></path><path d="M 384,8q0-1.625 0.633-3.109t 1.707-2.555t 2.555-1.703t 3.105-0.633q 1.633,0 3.113,0.633t 2.551,1.703t 1.703,2.551t 0.633,3.113q0,1.625 -0.633,3.105t-1.703,2.555t-2.555,1.707t-3.109,0.633t-3.105-0.633t-2.555-1.707t-1.707-2.555t-0.633-3.105zM 386,8q0,1.633 0.805,3.012t 2.184,2.184t 3.012,0.805t 3.012-0.805 t 2.184-2.184t 0.805-3.012t-0.805-3.012t-2.184-2.184t-3.012-0.805t-3.012,0.805t-2.184,2.184t-0.805,3.012zM 388,8q0-0.422 0.289-0.711l 2-2q 0.219-0.211 0.516-0.27t 0.578,0.059q 0.281,0.109 0.449,0.363t 0.168,0.559l0,1 l 3,0 q 0.414,0 0.707,0.293t 0.293,0.707t-0.293,0.707t-0.707,0.293l-3,0 l0,1  q0,0.297 -0.168,0.551t-0.449,0.371t-0.578,0.059t-0.516-0.277l-2-2q-0.289-0.289 -0.289-0.703z"></path><path d="M 416,8q0-1.625 0.633-3.109t 1.707-2.555t 2.555-1.703t 3.105-0.633q 1.633,0 3.113,0.633t 2.551,1.703t 1.703,2.551t 0.633,3.113q0,1.625 -0.633,3.105t-1.703,2.555t-2.555,1.707t-3.109,0.633t-3.105-0.633t-2.555-1.707t-1.707-2.555t-0.633-3.105zM 418,8q0,1.633 0.805,3.012t 2.184,2.184t 3.012,0.805t 3.012-0.805 t 2.184-2.184t 0.805-3.012t-0.805-3.012t-2.184-2.184t-3.012-0.805t-3.012,0.805t-2.184,2.184t-0.805,3.012zM 420,8q0-0.414 0.293-0.707t 0.707-0.293l 3,0 l0-1 q0-0.305 0.168-0.555t 0.449-0.367t 0.578-0.059t 0.516,0.27l 2,2q 0.289,0.289 0.289,0.711q0,0.414 -0.289,0.703l-2,2q-0.219,0.219 -0.516,0.277t-0.578-0.059 q-0.281-0.109 -0.449-0.363t-0.168-0.559l0-1 l-3,0 q-0.414,0 -0.707-0.293t-0.293-0.707z"></path><path d="M 448,11q0,1.242 0.879,2.121t 2.121,0.879l 10,0 q 1.242,0 2.121-0.879t 0.879-2.121l0-6 q0-1.242 -0.879-2.121t-2.121-0.879l-10,0 q-1.242,0 -2.121,0.879t-0.879,2.121l0,6 zM 450,10l0-4 l 6,4l 6-4l0,3.992 l-3-1l 2.711,2.711q-0.297,0.297 -0.711,0.297l-10,0 q-0.422,0 -0.703-0.297 l 2.703-2.703zM 450.367,4.242q 0.281-0.242 0.633-0.242l 10,0 q 0.352,0 0.633,0.242l-5.633,3.758z"></path><path d="M 480,8l 2,0 l 6-6.859l 6,6.859l 2,0 l-7-8l-2,0 zM 482,16l 4,0 l0-5 q0-0.414 0.293-0.707t 0.707-0.293l 2,0 q 0.414,0 0.707,0.293t 0.293,0.707l0,5 l 4,0 l0-6.711 l-6-6.625l-6,6.625l0,6.711 zM 493,3.055l 2,2.281l0-4.336 l-2,0 l0,2.055 z"></path><path d="M 15.36,35.434c-0.542,0.241-1.124,0.402-1.735,0.476c 0.624-0.374, 1.103-0.966, 1.328-1.67c-0.583,0.346-1.23,0.598-1.917,0.733
	c-0.551-0.587-1.336-0.954-2.205-0.954c-1.668,0-3.020,1.352-3.020,3.019c0,0.237, 0.026,0.467, 0.078,0.688
	c-2.51-0.126-4.735-1.328-6.224-3.155C 1.405,35.017, 1.255,35.536, 1.255,36.090c0,1.048, 0.534,1.972, 1.344,2.514
	c-0.495-0.016-0.961-0.151-1.368-0.378c0,0.013,0,0.025,0,0.038c0,1.463, 1.042,2.683, 2.422,2.962c-0.253,0.069-0.52,0.106-0.796,0.106
	c-0.194,0-0.383-0.018-0.568-0.054c 0.384,1.2, 1.5,2.073, 2.821,2.097c-1.034,0.81-2.335,1.293-3.75,1.293
	c-0.244,0-0.484-0.014-0.72-0.042c 1.336,0.857, 2.923,1.357, 4.63,1.357c 5.554,0, 8.592-4.602, 8.592-8.593
	c0-0.13-0.002-0.261-0.009-0.39C 14.443,36.572, 14.954,36.040, 15.36,35.434z"></path><path d="M 45.16,33.12L 34.84,33.12 C 33.894,33.12, 33.12,33.894, 33.12,34.84l0,10.32 c0,0.946, 0.774,1.719, 1.719,1.719l 5.219,0 l0-4.934 l-1.648,0 L 38.41,39.797 l 1.648,0 L 40.058,38.72 
	c0-1.66, 1.226-2.96, 2.79-2.96l 1.518,0 l0,2.427 l-1.359,0 c-0.355,0-0.459,0.204-0.459,0.486l0,1.123 l 1.818,0 l0,2.15 l-1.818,0 L 42.549,46.88 l 2.61,0 
	c 0.946,0, 1.719-0.774, 1.719-1.719L 46.878,34.84 C 46.88,33.894, 46.106,33.12, 45.16,33.12z"></path><path d="M 65.592,36.471c0,1.194, 0.399,2.058, 1.186,2.564c 0.644,0.415, 1.392,0.478, 1.781,0.478c 0.094,0, 0.17-0.004, 0.222-0.007
	c0,0-0.123,0.802, 0.472,1.597l-0.027-0.001c-1.031,0-4.395,0.216-4.395,2.982c0,2.814, 3.090,2.956, 3.709,2.956
	c 0.049,0, 0.077-0.001, 0.077-0.001c 0.007,0, 0.051,0.002, 0.126,0.002c 0.398,0, 1.426-0.050, 2.381-0.514
	c 1.238-0.601, 1.867-1.647, 1.867-3.108c0-1.412-0.957-2.252-1.656-2.866c-0.426-0.374-0.795-0.698-0.795-1.012
	c0-0.32, 0.269-0.561, 0.61-0.866c 0.55-0.493, 1.070-1.194, 1.070-2.521c0-1.166-0.151-1.949-1.083-2.445
	c 0.098-0.050, 0.441-0.086, 0.611-0.11c 0.505-0.069, 1.243-0.147, 1.243-0.559L 72.99,32.96 L 69.312,32.96 C 69.275,32.961, 65.592,33.098, 65.592,36.471z
	 M 71.53,43.682c 0.070,1.125-0.892,1.955-2.337,2.060c-1.467,0.108-2.676-0.553-2.746-1.678c-0.034-0.54, 0.203-1.069, 0.668-1.49
	c 0.472-0.426, 1.118-0.69, 1.823-0.742c 0.083-0.005, 0.166-0.009, 0.248-0.009C 70.544,41.822, 71.464,42.621, 71.53,43.682z M 70.57,35.701
	c 0.361,1.27-0.184,2.597-1.052,2.842C 69.418,38.57, 69.314,38.585, 69.21,38.585c-0.796,0-1.584-0.805-1.876-1.914
	C 67.171,36.048, 67.184,35.504, 67.371,34.98C 67.555,34.466, 67.886,34.117, 68.302,34c 0.1-0.029, 0.204-0.042, 0.308-0.042
	C 69.57,33.958, 70.187,34.356, 70.57,35.701z M 76.769,38.466l0-2.4 l-1.52,0 l0,2.4 l-2.4,0 l0,1.52 l 2.4,0 l0,2.4 l 1.52,0 l0-2.4 l 2.4,0 l0-1.52 L 76.769,38.466 z"></path><path d="M 102.893,42.582C 102.473,44.785, 101.96,46.897, 100.44,48c-0.469-3.33, 0.689-5.83, 1.226-8.484
	c-0.917-1.544, 0.11-4.65, 2.045-3.884c 2.38,0.942-2.061,5.738, 0.92,6.338c 3.113,0.626, 4.383-5.4, 2.454-7.359
	C 104.296,31.78, 98.966,34.545, 99.622,38.595c 0.159,0.99, 1.182,1.291, 0.409,2.658c-1.785-0.395-2.318-1.803-2.249-3.68
	C 97.893,34.502, 100.542,32.351, 103.2,32.054c 3.362-0.377, 6.516,1.234, 6.95,4.395c 0.49,3.568-1.516,7.433-5.111,7.154
	C 104.066,43.529, 103.657,43.046, 102.893,42.582z"></path><path d="M 135.652,37.937C 134.566,36.005, 133.404,34.43, 133.318,34.315C 131.566,35.143, 130.257,36.758, 129.85,38.704C 130.014,38.707, 132.634,38.738, 135.652,37.937
	z M 136.435,40.048c 0.083-0.026, 0.165-0.050, 0.249-0.074c-0.158-0.358-0.33-0.715-0.51-1.068c-3.237,0.968-6.343,0.898-6.454,0.895
	C 129.718,39.867, 129.715,39.933, 129.715,40c0,1.617, 0.611,3.089, 1.613,4.202c-0.002-0.002-0.005-0.006-0.005-0.006
	S 133.044,41.146, 136.435,40.048z M 132.137,44.954l 0.002-0.002c-0.047-0.037-0.097-0.070-0.142-0.108
	C 132.079,44.911, 132.137,44.954, 132.137,44.954z M 134.494,33.898C 134.489,33.899, 134.483,33.9, 134.478,33.902C 134.487,33.899, 134.494,33.898, 134.494,33.898
	L 134.494,33.898z M 140.151,35.283c-1.107-0.975-2.559-1.568-4.15-1.568c-0.511,0-1.006,0.062-1.482,0.178
	c 0.095,0.126, 1.275,1.694, 2.35,3.666C 139.239,36.67, 140.135,35.309, 140.151,35.283z M 136.001,47.36C 131.935,47.36, 128.64,44.065, 128.64,40
	s 3.295-7.36, 7.361-7.36c 4.065,0, 7.359,3.295, 7.359,7.36S 140.066,47.36, 136.001,47.36z M 137.070,41.028c-3.689,1.286-4.907,3.871-4.931,3.924
	c 1.066,0.833, 2.405,1.333, 3.862,1.333c 0.87,0, 1.699-0.177, 2.453-0.497c-0.093-0.551-0.458-2.477-1.342-4.774
	C 137.098,41.019, 137.083,41.023, 137.070,41.028z M 137.352,38.495c 0.147,0.3, 0.287,0.604, 0.418,0.912c 0.047,0.109, 0.091,0.217, 0.136,0.325
	c 2.171-0.273, 4.308,0.19, 4.378,0.206c-0.014-1.491-0.547-2.859-1.429-3.93C 140.842,36.026, 139.834,37.482, 137.352,38.495z M 138.289,40.724
	c 0.826,2.268, 1.16,4.114, 1.223,4.49c 1.412-0.953, 2.414-2.464, 2.694-4.217C 142.082,40.956, 140.321,40.398, 138.289,40.724z"></path><path d="M 171,42c-1,1-1,2-2,2s-2-1-3-2s-2-2-2-3s 1-1, 2-2S 164,33, 163,33S 160,36, 160,36c0,2, 2.055,6.055, 4,8
	s 6,4, 8,4c0,0, 3-2, 3-3S 172,41, 171,42z"></path></svg>