<?xml version="1.0" encoding="utf-8"?> <!-- Generator: IcoMoon.io --> <!DOCTYPE svg PUBLIC "-//W3C//DTD SVG 1.1//EN" "http://www.w3.org/Graphics/SVG/1.1/DTD/svg11.dtd"> <svg width="16" height="16" viewBox="0 0 16 16" xmlns="http://www.w3.org/2000/svg" xmlns:xlink="http://www.w3.org/1999/xlink" fill="#fcfcfc"><g><path d="M 7.652,5.937C 6.566,4.005, 5.404,2.43, 5.318,2.315C 3.566,3.143, 2.257,4.758, 1.85,6.704C 2.014,6.707, 4.634,6.738, 7.652,5.937 z M 8.435,8.048c 0.083-0.026, 0.165-0.050, 0.249-0.074c-0.158-0.358-0.33-0.715-0.51-1.068c-3.237,0.968-6.343,0.898-6.454,0.895 C 1.718,7.867, 1.715,7.933, 1.715,8c0,1.617, 0.611,3.089, 1.613,4.202c-0.002-0.002-0.005-0.006-0.005-0.006 S 5.044,9.146, 8.435,8.048z M 4.137,12.954l 0.002-0.002c-0.047-0.037-0.097-0.070-0.142-0.108 C 4.079,12.911, 4.137,12.954, 4.137,12.954z M 6.494,1.898C 6.489,1.899, 6.483,1.9, 6.478,1.902C 6.487,1.899, 6.494,1.898, 6.494,1.898 L 6.494,1.898z M 12.151,3.283c-1.107-0.975-2.559-1.568-4.15-1.568c-0.511,0-1.006,0.062-1.482,0.178 c 0.095,0.126, 1.275,1.694, 2.35,3.666C 11.239,4.67, 12.135,3.309, 12.151,3.283z M 8.001,15.36C 3.935,15.36, 0.64,12.065, 0.64,8 s 3.295-7.36, 7.361-7.36c 4.065,0, 7.359,3.295, 7.359,7.36S 12.066,15.36, 8.001,15.36z M 9.070,9.028c-3.689,1.286-4.907,3.871-4.931,3.924 c 1.066,0.833, 2.405,1.333, 3.862,1.333c 0.87,0, 1.699-0.177, 2.453-0.497c-0.093-0.551-0.458-2.477-1.342-4.774 C 9.098,9.019, 9.083,9.023, 9.070,9.028z M 9.352,6.495c 0.147,0.3, 0.287,0.604, 0.418,0.912c 0.047,0.109, 0.091,0.217, 0.136,0.325 c 2.171-0.273, 4.308,0.19, 4.378,0.206c-0.014-1.491-0.547-2.859-1.429-3.93C 12.842,4.026, 11.834,5.482, 9.352,6.495z M 10.289,8.724 c 0.826,2.268, 1.16,4.114, 1.223,4.49c 1.412-0.953, 2.414-2.464, 2.694-4.217C 14.082,8.956, 12.321,8.398, 10.289,8.724z"></path></g></svg>