<?xml version="1.0" encoding="utf-8"?> <!-- Generator: IcoMoon.io --> <!DOCTYPE svg PUBLIC "-//W3C//DTD SVG 1.1//EN" "http://www.w3.org/Graphics/SVG/1.1/DTD/svg11.dtd"> <svg width="16" height="16" viewBox="0 0 16 16" xmlns="http://www.w3.org/2000/svg" xmlns:xlink="http://www.w3.org/1999/xlink" fill="#fcfcfc"><g><path d="M 13.16,1.12L 2.84,1.12 C 1.894,1.12, 1.12,1.894, 1.12,2.84l0,10.32 c0,0.946, 0.774,1.719, 1.719,1.719l 5.219,0 l0-4.934 l-1.648,0 L 6.41,7.797 l 1.648,0 L 8.058,6.72 c0-1.66, 1.226-2.96, 2.79-2.96l 1.518,0 l0,2.427 l-1.359,0 c-0.355,0-0.459,0.204-0.459,0.486l0,1.123 l 1.818,0 l0,2.15 l-1.818,0 L 10.549,14.88 l 2.61,0 c 0.946,0, 1.719-0.774, 1.719-1.719L 14.878,2.84 C 14.88,1.894, 14.106,1.12, 13.16,1.12z"></path></g></svg>