<?xml version="1.0" encoding="utf-8"?> <!-- Generator: IcoMoon.io --> <!DOCTYPE svg PUBLIC "-//W3C//DTD SVG 1.1//EN" "http://www.w3.org/Graphics/SVG/1.1/DTD/svg11.dtd"> <svg width="16" height="16" viewBox="0 0 16 16" xmlns="http://www.w3.org/2000/svg" xmlns:xlink="http://www.w3.org/1999/xlink" fill="#fcfcfc"><g><path d="M 1.592,4.471c0,1.194, 0.399,2.058, 1.186,2.564c 0.644,0.415, 1.392,0.478, 1.781,0.478c 0.094,0, 0.17-0.004, 0.222-0.007 c0,0-0.123,0.802, 0.472,1.597l-0.027-0.001c-1.031,0-4.395,0.216-4.395,2.982c0,2.814, 3.090,2.956, 3.709,2.956 c 0.049,0, 0.077-0.001, 0.077-0.001c 0.007,0, 0.051,0.002, 0.126,0.002c 0.398,0, 1.426-0.050, 2.381-0.514 c 1.238-0.601, 1.867-1.647, 1.867-3.108c0-1.412-0.957-2.252-1.656-2.866c-0.426-0.374-0.795-0.698-0.795-1.012 c0-0.32, 0.269-0.561, 0.61-0.866c 0.55-0.493, 1.070-1.194, 1.070-2.521c0-1.166-0.151-1.949-1.083-2.445 c 0.098-0.050, 0.441-0.086, 0.611-0.11c 0.505-0.069, 1.243-0.147, 1.243-0.559L 8.99,0.96 L 5.312,0.96 C 5.275,0.961, 1.592,1.098, 1.592,4.471z M 7.53,11.682c 0.070,1.125-0.892,1.955-2.337,2.060c-1.467,0.108-2.676-0.553-2.746-1.678c-0.034-0.54, 0.203-1.069, 0.668-1.49 c 0.472-0.426, 1.118-0.69, 1.823-0.742c 0.083-0.005, 0.166-0.009, 0.248-0.009C 6.544,9.822, 7.464,10.621, 7.53,11.682z M 6.57,3.701 c 0.361,1.27-0.184,2.597-1.052,2.842C 5.418,6.57, 5.314,6.585, 5.21,6.585c-0.796,0-1.584-0.805-1.876-1.914 C 3.171,4.048, 3.184,3.504, 3.371,2.98C 3.555,2.466, 3.886,2.117, 4.302,2c 0.1-0.029, 0.204-0.042, 0.308-0.042 C 5.57,1.958, 6.187,2.356, 6.57,3.701z M 12.769,6.466l0-2.4 l-1.52,0 l0,2.4 l-2.4,0 l0,1.52 l 2.4,0 l0,2.4 l 1.52,0 l0-2.4 l 2.4,0 l0-1.52 L 12.769,6.466 z"></path></g></svg>