<?xml version="1.0" encoding="utf-8"?> <!-- Generator: IcoMoon.io --> <!DOCTYPE svg PUBLIC "-//W3C//DTD SVG 1.1//EN" "http://www.w3.org/Graphics/SVG/1.1/DTD/svg11.dtd"> <svg width="16" height="16" viewBox="0 0 16 16" xmlns="http://www.w3.org/2000/svg" xmlns:xlink="http://www.w3.org/1999/xlink" fill="#fcfcfc"><g><path d="M0,13q0,1.242 0.879,2.121t 2.121,0.879l 10,0 q 1.242,0 2.121-0.879t 0.879-2.121l0-10 q0-1.242 -0.879-2.121t-2.121-0.879l-0.555,0 q 0.914,1.023 1.289,2.336q 0.266,0.289 0.266,0.664l0,10 q0,0.414 -0.293,0.707t-0.707,0.293l-10,0 q-0.414,0 -0.707-0.293t-0.293-0.707l0-10 q0-0.375 0.266-0.664q 0.375-1.313 1.289-2.336 l-0.555,0 q-1.242,0 -2.121,0.879t-0.879,2.121l0,10 zM 4,4q0,0.617 0.41,1.668t 1,2.113t 1.18,2.031t 1.004,1.578l 0.406,0.609q 0.164-0.234 0.434-0.637t 0.957-1.523t 1.215-2.090t 0.961-2.051t 0.434-1.699q0-1.656 -1.172-2.828t-2.828-1.172t-2.828,1.172t-1.172,2.828zM 6,4q0-0.828 0.586-1.414t 1.414-0.586t 1.414,0.586 t 0.586,1.414t-0.586,1.414t-1.414,0.586t-1.414-0.586t-0.586-1.414z"></path></g></svg>