<?xml version="1.0" encoding="utf-8"?> <!-- Generator: IcoMoon.io --> <!DOCTYPE svg PUBLIC "-//W3C//DTD SVG 1.1//EN" "http://www.w3.org/Graphics/SVG/1.1/DTD/svg11.dtd"> <svg width="16.09895896911621" height="16" viewBox="0 0 16.09895896911621 16" xmlns="http://www.w3.org/2000/svg" xmlns:xlink="http://www.w3.org/1999/xlink" fill="#fcfcfc"><g><path d="M 0.133,6.066q 0.273,1.035 1.039,1.809l 6.828,7.125l 6.828-7.125q 0.766-0.773 1.039-1.809t0-2.074t-1.039-1.813t-1.797-1.047t-2.066,0t-1.801,1.047l-1.164,1.422l-1.164-1.422q-0.766-0.773 -1.801-1.047t-2.066,0t-1.797,1.047t-1.039,1.813t0,2.074zM 2,5.027q0-0.832 0.586-1.426q 0.586-0.586 1.418-0.586t 1.418,0.586l 2.578,2.852 l 2.578-2.852q 0.586-0.586 1.418-0.586t 1.418,0.586q 0.586,0.594 0.586,1.426t-0.586,1.426l-5.414,5.695l-5.414-5.695q-0.586-0.594 -0.586-1.426z"></path></g></svg>