<?xml version="1.0" encoding="utf-8"?> <!-- Generator: IcoMoon.io --> <!DOCTYPE svg PUBLIC "-//W3C//DTD SVG 1.1//EN" "http://www.w3.org/Graphics/SVG/1.1/DTD/svg11.dtd"> <svg width="16" height="16" viewBox="0 0 16 16" xmlns="http://www.w3.org/2000/svg" xmlns:xlink="http://www.w3.org/1999/xlink" fill="#fcfcfc"><g><path d="M0,8q0-1.625 0.633-3.109t 1.707-2.555t 2.555-1.703t 3.105-0.633q 1.633,0 3.113,0.633t 2.551,1.703t 1.703,2.551t 0.633,3.113q0,1.625 -0.633,3.105t-1.703,2.555t-2.555,1.707t-3.109,0.633t-3.105-0.633t-2.555-1.707t-1.707-2.555t-0.633-3.105zM 2,8q0,1.633 0.805,3.012t 2.184,2.184t 3.012,0.805t 3.012-0.805 t 2.184-2.184t 0.805-3.012t-0.805-3.012t-2.184-2.184t-3.012-0.805t-3.012,0.805t-2.184,2.184t-0.805,3.012zM 4,8q0-0.414 0.293-0.707t 0.707-0.293l 3,0 l0-1 q0-0.305 0.168-0.555t 0.449-0.367t 0.578-0.059t 0.516,0.27l 2,2q 0.289,0.289 0.289,0.711q0,0.414 -0.289,0.703l-2,2q-0.219,0.219 -0.516,0.277t-0.578-0.059 q-0.281-0.109 -0.449-0.363t-0.168-0.559l0-1 l-3,0 q-0.414,0 -0.707-0.293t-0.293-0.707z"></path></g></svg>