<?xml version="1.0" encoding="utf-8"?> <!-- Generator: IcoMoon.io --> <!DOCTYPE svg PUBLIC "-//W3C//DTD SVG 1.1//EN" "http://www.w3.org/Graphics/SVG/1.1/DTD/svg11.dtd"> <svg width="16" height="16" viewBox="0 0 16 16" xmlns="http://www.w3.org/2000/svg" xmlns:xlink="http://www.w3.org/1999/xlink" fill="#fcfcfc"><g><path d="M0,13q0,1.242 0.879,2.121t 2.121,0.879l 10,0 q 1.242,0 2.121-0.879t 0.879-2.121l0-10 q0-1.242 -0.879-2.121t-2.121-0.879l-10,0 q-1.242,0 -2.121,0.879t-0.879,2.121l0,10 zM 2,13l0-10 q0-0.414 0.293-0.707t 0.707-0.293l 10,0 q 0.414,0 0.707,0.293t 0.293,0.707l0,10 q0,0.414 -0.293,0.707t-0.707,0.293l-10,0 q-0.414,0 -0.707-0.293t-0.293-0.707zM 3,12q0,0.414 0.293,0.707t 0.707,0.293l 8,0 q 0.414,0 0.707-0.293t 0.293-0.707l0-0.469 q-0.102-0.227 -0.559-1.348t-0.793-1.797t-0.648-1.043q-0.258-0.297 -0.551-0.316t-0.57,0.191t-0.582,0.563t-0.586,0.781t-0.586,0.863t-0.57,0.793t-0.555,0.586 t-0.531,0.227q-0.289,0 -0.844-0.711q-0.078-0.102 -0.227-0.313q-0.563-0.742 -0.813-0.914q-0.375-0.258 -0.586,0.188q-0.117,0.25 -0.465,1.109t-0.535,1.281l0,0.328 zM 3,4.5q0,0.625 0.438,1.063t 1.063,0.438t 1.063-0.438t 0.438-1.063t-0.438-1.063t-1.063-0.438t-1.063,0.438t-0.438,1.063z"></path></g></svg>