<?xml version="1.0" encoding="utf-8"?> <!-- Generator: IcoMoon.io --> <!DOCTYPE svg PUBLIC "-//W3C//DTD SVG 1.1//EN" "http://www.w3.org/Graphics/SVG/1.1/DTD/svg11.dtd"> <svg width="16" height="16" viewBox="0 0 16 16" xmlns="http://www.w3.org/2000/svg" xmlns:xlink="http://www.w3.org/1999/xlink" fill="#fcfcfc"><g><path d="M0,8q0-1.625 0.633-3.109t 1.707-2.555t 2.555-1.703t 3.105-0.633q 1.633,0 3.113,0.633t 2.551,1.703t 1.703,2.551t 0.633,3.113q0,1.625 -0.633,3.105t-1.703,2.555t-2.555,1.707t-3.109,0.633t-3.105-0.633t-2.555-1.707t-1.707-2.555t-0.633-3.105zM 2,8q0,1.633 0.805,3.012t 2.184,2.184t 3.012,0.805t 3.012-0.805 t 2.184-2.184t 0.805-3.012t-0.805-3.012t-2.184-2.184t-3.012-0.805t-3.012,0.805t-2.184,2.184t-0.805,3.012zM 5.020,9.195q-0.059-0.297 0.059-0.578t 0.367-0.449t 0.555-0.168l 1,0 l0-3 q0-0.414 0.293-0.707t 0.707-0.293t 0.707,0.293t 0.293,0.707l0,3 l 1,0 q 0.305,0 0.559,0.168t 0.363,0.449q 0.117,0.281 0.059,0.578t-0.27,0.516 l-2,2q-0.289,0.289 -0.711,0.289q-0.414,0 -0.703-0.289l-2-2q-0.219-0.219 -0.277-0.516z"></path></g></svg>