<?xml version="1.0" encoding="utf-8"?> <!-- Generator: IcoMoon.io --> <!DOCTYPE svg PUBLIC "-//W3C//DTD SVG 1.1//EN" "http://www.w3.org/Graphics/SVG/1.1/DTD/svg11.dtd"> <svg width="16" height="16" viewBox="0 0 16 16" xmlns="http://www.w3.org/2000/svg" xmlns:xlink="http://www.w3.org/1999/xlink" fill="#fcfcfc"><g><path d="M 0.188,8q0,0.813 0.57,1.383t 1.383,0.57t 1.383-0.57t 0.57-1.383t-0.57-1.383t-1.383-0.57t-1.383,0.57t-0.57,1.383zM 6.047,8q0,0.813 0.57,1.383t 1.383,0.57t 1.383-0.57t 0.57-1.383t-0.57-1.383t-1.383-0.57t-1.383,0.57t-0.57,1.383zM 11.906,8q0,0.813 0.57,1.383t 1.383,0.57t 1.383-0.57t 0.57-1.383t-0.57-1.383t-1.383-0.57t-1.383,0.57t-0.57,1.383z"></path></g></svg>