<?xml version="1.0" encoding="utf-8"?> <!-- Generator: IcoMoon.io --> <!DOCTYPE svg PUBLIC "-//W3C//DTD SVG 1.1//EN" "http://www.w3.org/Graphics/SVG/1.1/DTD/svg11.dtd"> <svg width="16" height="16" viewBox="0 0 16 16" xmlns="http://www.w3.org/2000/svg" xmlns:xlink="http://www.w3.org/1999/xlink" fill="#fcfcfc"><g><path d="M0,13q0,1.242 0.879,2.121t 2.121,0.879l 10,0 q 1.242,0 2.121-0.879t 0.879-2.121l0-10 q0-1.242 -0.879-2.121t-2.121-0.879l-10,0 q-1.242,0 -2.121,0.879t-0.879,2.121l0,10 zM 2,13l0-10 q0-0.414 0.293-0.707t 0.707-0.293l 10,0 q 0.414,0 0.707,0.293t 0.293,0.707l0,10 q0,0.414 -0.293,0.707t-0.707,0.293l-10,0 q-0.414,0 -0.707-0.293t-0.293-0.707zM 4,12l 8,0 l0-2 l-8,0 l0,2 zM 4,9l 8,0 l0-2 l-8,0 l0,2 zM 4,6l 8,0 l0-2 l-8,0 l0,2 z"></path></g></svg>