<?xml version="1.0" encoding="utf-8"?> <!-- Generator: IcoMoon.io --> <!DOCTYPE svg PUBLIC "-//W3C//DTD SVG 1.1//EN" "http://www.w3.org/Graphics/SVG/1.1/DTD/svg11.dtd"> <svg width="16" height="16" viewBox="0 0 16 16" xmlns="http://www.w3.org/2000/svg" xmlns:xlink="http://www.w3.org/1999/xlink" fill="#fcfcfc"><g><path d="M0,15q0,0.414 0.293,0.707t 0.707,0.293l 14,0 q 0.414,0 0.707-0.293t 0.293-0.707l0-11 q0-0.414 -0.293-0.707t-0.707-0.293l-4,0 l0-2 q0-0.414 -0.293-0.707t-0.707-0.293l-4,0 q-0.414,0 -0.707,0.293t-0.293,0.707l0,2 l-2,0 l0-1 l-1,0 l0,1 l-1,0 q-0.414,0 -0.707,0.293t-0.293,0.707l0,11 zM 2,14l0-5 l 3.188,0 q-0.188,0.5 -0.188,1q0,1.242 0.879,2.121t 2.121,0.879t 2.121-0.879t 0.879-2.121q0-0.484 -0.18-1l 3.18,0 l0,5 l-12,0 zM 2,8l0-3 l 12,0 l0,3 l-3.781,0 q-0.594-0.656 -1.414-0.887t-1.633,0.004t-1.391,0.883l-3.781,0 zM 3,7l 1,0 l0-1 l-1,0 l0,1 zM 5,7l 1,0 l0-1 l-1,0 l0,1 zM 6,10q0-0.828 0.586-1.414 t 1.414-0.586t 1.414,0.586t 0.586,1.414t-0.586,1.414t-1.414,0.586t-1.414-0.586t-0.586-1.414zM 7,3l0-1 l 2,0 l0,1 l-2,0 zM 11,7l 2,0 l0-1 l-2,0 l0,1 z"></path></g></svg>