<?xml version="1.0" encoding="utf-8"?> <!-- Generator: IcoMoon.io --> <!DOCTYPE svg PUBLIC "-//W3C//DTD SVG 1.1//EN" "http://www.w3.org/Graphics/SVG/1.1/DTD/svg11.dtd"> <svg width="16" height="16" viewBox="0 0 16 16" xmlns="http://www.w3.org/2000/svg" xmlns:xlink="http://www.w3.org/1999/xlink" fill="#fcfcfc"><g><path d="M0,11q0,1.242 0.879,2.121t 2.121,0.879l 10,0 q 1.242,0 2.121-0.879t 0.879-2.121l0-6 q0-1.242 -0.879-2.121t-2.121-0.879l-10,0 q-1.242,0 -2.121,0.879t-0.879,2.121l0,6 zM 2,10l0-4 l 6,4l 6-4l0,3.992 l-3-1l 2.711,2.711q-0.297,0.297 -0.711,0.297l-10,0 q-0.422,0 -0.703-0.297 l 2.703-2.703zM 2.367,4.242q 0.281-0.242 0.633-0.242l 10,0 q 0.352,0 0.633,0.242l-5.633,3.758z"></path></g></svg>