<?xml version="1.0" encoding="utf-8"?> <!-- Generator: IcoMoon.io --> <!DOCTYPE svg PUBLIC "-//W3C//DTD SVG 1.1//EN" "http://www.w3.org/Graphics/SVG/1.1/DTD/svg11.dtd"> <svg width="16" height="16" viewBox="0 0 16 16" xmlns="http://www.w3.org/2000/svg" xmlns:xlink="http://www.w3.org/1999/xlink" fill="#fcfcfc"><g><path d="M0,8q 0.023,0.063 0.074,0.176t 0.242,0.453t 0.422,0.672t 0.621,0.781t 0.832,0.836t 1.066,0.781t 1.313,0.672t 1.578,0.453t 1.852,0.176t 1.852-0.172t 1.582-0.461t 1.309-0.664t 1.066-0.789t 0.828-0.828t 0.625-0.789t 0.418-0.664t 0.242-0.461l 0.078-0.172q-0.023-0.063 -0.074-0.176t-0.242-0.453t-0.422-0.672t-0.621-0.781t-0.832-0.836t-1.066-0.781t-1.313-0.672t-1.578-0.453t-1.852-0.176 t-1.852,0.172t-1.582,0.461t-1.309,0.664t-1.066,0.789t-0.828,0.828t-0.625,0.789t-0.418,0.664t-0.242,0.461zM 5,8q0-1.242 0.879-2.121t 2.121-0.879t 2.121,0.879t 0.879,2.121t-0.879,2.121t-2.121,0.879t-2.121-0.879t-0.879-2.121zM 6,8q0,0.828 0.586,1.414t 1.414,0.586t 1.414-0.586t 0.586-1.414t-0.586-1.414 t-1.414-0.586t-1.414,0.586l 1.414,1.414l-2,0 z"></path></g></svg>