<?xml version="1.0" encoding="utf-8"?> <!-- Generator: IcoMoon.io --> <!DOCTYPE svg PUBLIC "-//W3C//DTD SVG 1.1//EN" "http://www.w3.org/Graphics/SVG/1.1/DTD/svg11.dtd"> <svg width="16" height="16" viewBox="0 0 16 16" xmlns="http://www.w3.org/2000/svg" xmlns:xlink="http://www.w3.org/1999/xlink" fill="#fcfcfc"><g><path d="M0,13l0-10 q0-1.242 0.879-2.121t 2.121-0.879l 6.172,0 l-2,2l-4.172,0 q-0.414,0 -0.707,0.293t-0.293,0.707l0,10 q0,0.414 0.293,0.707t 0.707,0.293l 10,0 q 0.414,0 0.707-0.293t 0.293-0.707l0-4.172 l 2-2l0,6.172 q0,1.242 -0.879,2.121t-2.121,0.879l-10,0 q-1.242,0 -2.121-0.879t-0.879-2.121z M 3,13l 2-6l 7-7l 4,4l-7,7zM 5,11l 3-1l-2-2zM 7,7l 2,2l 3-3l-2-2z"></path></g></svg>