<?xml version="1.0" encoding="utf-8"?> <!-- Generator: IcoMoon.io --> <!DOCTYPE svg PUBLIC "-//W3C//DTD SVG 1.1//EN" "http://www.w3.org/Graphics/SVG/1.1/DTD/svg11.dtd"> <svg width="16" height="16.323200225830078" viewBox="0 0 16 16.323200225830078" xmlns="http://www.w3.org/2000/svg" xmlns:xlink="http://www.w3.org/1999/xlink" fill="#fcfcfc"><g><path d="M 6.893,10.582C 6.473,12.785, 5.96,14.897, 4.44,16c-0.469-3.33, 0.689-5.83, 1.226-8.484 c-0.917-1.544, 0.11-4.65, 2.045-3.884c 2.38,0.942-2.061,5.738, 0.92,6.338c 3.113,0.626, 4.383-5.4, 2.454-7.359 C 8.296-0.22, 2.966,2.545, 3.622,6.595c 0.159,0.99, 1.182,1.291, 0.409,2.658c-1.785-0.395-2.318-1.803-2.249-3.68 C 1.893,2.502, 4.542,0.351, 7.2,0.054c 3.362-0.377, 6.516,1.234, 6.95,4.395c 0.49,3.568-1.516,7.433-5.111,7.154 C 8.066,11.529, 7.657,11.046, 6.893,10.582z"></path></g></svg>