<?xml version="1.0" encoding="utf-8"?> <!-- Generator: IcoMoon.io --> <!DOCTYPE svg PUBLIC "-//W3C//DTD SVG 1.1//EN" "http://www.w3.org/Graphics/SVG/1.1/DTD/svg11.dtd"> <svg width="16" height="16" viewBox="0 0 16 16" xmlns="http://www.w3.org/2000/svg" xmlns:xlink="http://www.w3.org/1999/xlink" fill="#fcfcfc"><g><path d="M 15.36,3.434c-0.542,0.241-1.124,0.402-1.735,0.476c 0.624-0.374, 1.103-0.966, 1.328-1.67c-0.583,0.346-1.23,0.598-1.917,0.733 c-0.551-0.587-1.336-0.954-2.205-0.954c-1.668,0-3.020,1.352-3.020,3.019c0,0.237, 0.026,0.467, 0.078,0.688 c-2.51-0.126-4.735-1.328-6.224-3.155C 1.405,3.017, 1.255,3.536, 1.255,4.090c0,1.048, 0.534,1.972, 1.344,2.514 c-0.495-0.016-0.961-0.151-1.368-0.378c0,0.013,0,0.025,0,0.038c0,1.463, 1.042,2.683, 2.422,2.962c-0.253,0.069-0.52,0.106-0.796,0.106 c-0.194,0-0.383-0.018-0.568-0.054c 0.384,1.2, 1.5,2.073, 2.821,2.097c-1.034,0.81-2.335,1.293-3.75,1.293 c-0.244,0-0.484-0.014-0.72-0.042c 1.336,0.857, 2.923,1.357, 4.63,1.357c 5.554,0, 8.592-4.602, 8.592-8.593 c0-0.13-0.002-0.261-0.009-0.39C 14.443,4.572, 14.954,4.040, 15.36,3.434z"></path></g></svg>