<?xml version="1.0" encoding="utf-8"?>
<!-- Generator: Adobe Illustrator 15.0.0, SVG Export Plug-In . SVG Version: 6.00 Build 0)  -->
<!DOCTYPE svg PUBLIC "-//W3C//DTD SVG 1.1//EN" "http://www.w3.org/Graphics/SVG/1.1/DTD/svg11.dtd">
<svg version="1.1" id="Layer_1" xmlns="http://www.w3.org/2000/svg" xmlns:xlink="http://www.w3.org/1999/xlink" x="0px" y="0px"
	 width="100px" height="100px" viewBox="0 0 100 100" enable-background="new 0 0 100 100" xml:space="preserve">
<path id="_91613632" fill="#1F1A17" d="M28.354,85.923h43.293c0.234,0,0.424,0.189,0.424,0.424v4.057
	c0,0.234-0.189,0.424-0.424,0.424H28.354c-0.234,0-0.424-0.189-0.424-0.424v-4.057C27.93,86.112,28.12,85.923,28.354,85.923z"/>
<g>
	<path id="_91598024" fill="#1F1A17" d="M28.721,10.435h41.865c0.221,0,0.471,0.204,0.402,0.429L70.6,12.146
		c-0.068,0.225-0.182,0.429-0.403,0.429H29.401c-0.221,0-0.292-0.221-0.402-0.429l-0.68-1.282
		C28.208,10.656,28.5,10.435,28.721,10.435L28.721,10.435z"/>
	<rect id="_91625520" x="49.509" y="6.934" fill="#1F1A17" width="0.981" height="3.201"/>
	<path id="_63525216" fill="#1F1A17" d="M49.486,5h1.027c0.041,0,0.074,0.034,0.074,0.075v1.321c0,0.042-0.033,0.075-0.074,0.075
		h-1.027c-0.042,0-0.075-0.033-0.075-0.075V5.075C49.412,5.034,49.445,5,49.486,5z"/>
</g>
<polygon id="_92638888" fill="#1F1A17" points="71.719,85.647 70.977,85.647 69.96,85.647 30.04,85.647 29.773,85.647 
	28.281,85.647 30.04,84.338 30.04,85.385 69.96,85.385 69.96,84.338 "/>
<path id="_63341304" fill="#1F1A17" d="M32.393,95c0.77,0,1.773-0.313,2.24-0.697l3.625-2.984H35.47l-3.625,2.984
	C31.378,94.688,31.624,95,32.393,95z"/>
<path id="_92333208" fill="#1F1A17" d="M67.607,95c-0.77,0-1.773-0.313-2.24-0.697l-3.625-2.984h2.787l3.625,2.984
	C68.622,94.688,68.377,95,67.607,95L67.607,95z"/>
<path d="M29.401,14.315v70.022H69.96V14.315H29.401z M67.244,81.209H31.579V17.444h35.666V81.209z"/>
</svg>
