<?xml version="1.0" encoding="utf-8"?> <!-- Generator: IcoMoon.io --> <!DOCTYPE svg PUBLIC "-//W3C//DTD SVG 1.1//EN" "http://www.w3.org/Graphics/SVG/1.1/DTD/svg11.dtd"> <svg width="32" height="32" viewBox="0 0 32 32" xmlns="http://www.w3.org/2000/svg" xmlns:xlink="http://www.w3.org/1999/xlink" fill="#fcfcfc"><g><path d="M 3.184,8.942c0,2.389, 0.798,4.115, 2.371,5.128c 1.288,0.83, 2.784,0.955, 3.562,0.955c 0.189,0, 0.339-0.008, 0.445-0.014 c0,0-0.246,1.605, 0.944,3.194l-0.054-0.002c-2.062,0-8.79,0.432-8.79,5.963c0,5.627, 6.179,5.912, 7.418,5.912 c 0.098,0, 0.154-0.002, 0.154-0.002c 0.014,0, 0.102,0.003, 0.253,0.003c 0.795,0, 2.851-0.099, 4.762-1.029 c 2.477-1.202, 3.734-3.294, 3.734-6.216c0-2.824-1.914-4.504-3.312-5.733c-0.853-0.749-1.59-1.395-1.59-2.024 c0-0.64, 0.538-1.122, 1.219-1.731c 1.101-0.986, 2.141-2.389, 2.141-5.042c0-2.333-0.302-3.898-2.166-4.89 c 0.195-0.099, 0.882-0.171, 1.222-0.219c 1.010-0.138, 2.486-0.294, 2.486-1.118L 17.981,1.92 L 10.624,1.92 C 10.55,1.922, 3.184,2.195, 3.184,8.942z M 15.061,23.363c 0.141,2.25-1.784,3.91-4.674,4.12c-2.934,0.216-5.352-1.106-5.493-3.355c-0.067-1.080, 0.406-2.138, 1.336-2.981 c 0.944-0.853, 2.237-1.379, 3.646-1.485c 0.166-0.010, 0.331-0.018, 0.496-0.018C 13.088,19.645, 14.928,21.242, 15.061,23.363z M 13.139,7.402 c 0.722,2.539-0.368,5.194-2.104,5.683C 10.835,13.141, 10.629,13.17, 10.421,13.17c-1.592,0-3.168-1.61-3.752-3.827 C 6.342,8.096, 6.368,7.008, 6.742,5.96C 7.11,4.931, 7.771,4.234, 8.603,4c 0.2-0.058, 0.408-0.085, 0.616-0.085 C 11.139,3.915, 12.374,4.712, 13.139,7.402z M 25.538,12.931l0-4.8 l-3.040,0 l0,4.8 l-4.8,0 l0,3.040 l 4.8,0 l0,4.8 l 3.040,0 l0-4.8 l 4.8,0 l0-3.040 L 25.538,12.931 z"></path></g></svg>