<?xml version="1.0" encoding="UTF-8"?>
<!DOCTYPE svg PUBLIC "-//W3C//DTD SVG 1.1//EN" "http://www.w3.org/Graphics/SVG/1.1/DTD/svg11.dtd">
<!-- Creator: CorelDRAW -->
<svg xmlns="http://www.w3.org/2000/svg" xml:space="preserve" width="100px" height="100px" style="shape-rendering:geometricPrecision; text-rendering:geometricPrecision; image-rendering:optimizeQuality; fill-rule:evenodd; clip-rule:evenodd"
viewBox="0 0 100 100"
 xmlns:xlink="http://www.w3.org/1999/xlink">
 <defs>
  <style type="text/css">
   <![CDATA[
    .fil0 {fill:none}
    .fil2 {fill:white}
    .fil1 {fill:#1F1A17;fill-rule:nonzero}
   ]]>
  </style>
 </defs>
 <g id="Layer_x0020_1">
  <metadata id="CorelCorpID_0Corel-Layer"/>
  <rect class="fil0" width="100" height="100"/>
  <g id="_64007376">
   <path id="_60796104" class="fil1" d="M90.7216 92.0762l-33.7003 -84.1524 5.67827 0 32.3005 80.9307 -4.27843 3.2217zm-1.27536 0l-13.9093 0 -7.34741 -19.1228 -4.77248 0 -5.26111 -14.1658 4.5867 0 -11.5991 -31.2314 -2.26984 6.23823 -1.68047 -4.52492 0.476103 -1.30854 -1.11248 -0.404764 -1.10965 0.412087 0.484725 1.30524 -10.3082 28.3303 -3.07311 0 0 1.18382 2.64236 0 -5.15433 14.1658 -0.0770079 0 -0.989765 0 0 1.18382 0.560434 0 -6.5067 17.939 -13.4388 0 32.7792 -84.1524 13.3801 0 33.7002 84.1524zm-27.292 -19.1228l-24.9528 0 -2.65311 0 -3.24992 0 5.15433 -14.1658 3.32693 0 1.00051 0 16.1131 0 5.26099 14.1658zm-13.9055 -37.4417l-8.03835 22.0921 -3.32693 0 9.68481 -26.617 1.68047 4.52492zm-17.3811 38.6255l3.25134 0 -6.50658 17.939 -3.32752 0 6.47575 -17.8547 0.067441 0.0245669 0.039567 -0.10878z"/>
   <path id="_23677456" class="fil1" d="M89.4461 92.0762l-18.4958 0 -7.34741 -19.1228 -33.6412 0 -6.93603 19.1228 -18.0256 0 32.7793 -84.1524 17.9668 0 33.7001 84.1524zm-31.2901 -33.2886l-11.5991 -31.2314 -11.3639 31.2314 22.963 0z"/>
   <path id="_63874304" class="fil2" d="M86.8234 90.3013l-32.2785 -80.6025 -15.5521 0 -31.3966 80.6025 14.1851 0 6.93591 -19.1228 36.1051 0 7.34741 19.1228 14.6536 0zm-26.1148 -29.7386l-28.0503 0 13.8815 -38.1506 14.1688 38.1506z"/>
  </g>
 </g>
</svg>
