<?xml version="1.0" encoding="utf-8"?> <!-- Generator: IcoMoon.io --> <!DOCTYPE svg PUBLIC "-//W3C//DTD SVG 1.1//EN" "http://www.w3.org/Graphics/SVG/1.1/DTD/svg11.dtd"> <svg width="32" height="32" viewBox="0 0 32 32" xmlns="http://www.w3.org/2000/svg" xmlns:xlink="http://www.w3.org/1999/xlink" fill="#fcfcfc"><g><path d="M0,16q0-3.25 1.266-6.219t 3.414-5.109t 5.109-3.406t 6.211-1.266q 3.266,0 6.227,1.266t 5.102,3.406t 3.406,5.102t 1.266,6.227q0,3.25 -1.266,6.211t-3.406,5.109t-5.109,3.414t-6.219,1.266t-6.211-1.266t-5.109-3.414t-3.414-5.109t-1.266-6.211zM 4,16q0,3.266 1.609,6.023t 4.367,4.367t 6.023,1.609t 6.023-1.609 t 4.367-4.367t 1.609-6.023t-1.609-6.023t-4.367-4.367t-6.023-1.609t-6.023,1.609t-4.367,4.367t-1.609,6.023zM 8,16q0-0.828 0.586-1.414t 1.414-0.586l 6,0 l0-2 q0-0.609 0.336-1.109t 0.898-0.734t 1.156-0.117t 1.031,0.539l 4,4q 0.578,0.578 0.578,1.422q0,0.828 -0.578,1.406l-4,4q-0.438,0.438 -1.031,0.555t-1.156-0.117 q-0.563-0.219 -0.898-0.727t-0.336-1.117l0-2 l-6,0 q-0.828,0 -1.414-0.586t-0.586-1.414z"></path></g></svg>