<?xml version="1.0" encoding="utf-8"?> <!-- Generator: IcoMoon.io --> <!DOCTYPE svg PUBLIC "-//W3C//DTD SVG 1.1//EN" "http://www.w3.org/Graphics/SVG/1.1/DTD/svg11.dtd"> <svg width="32" height="32" viewBox="0 0 32 32" xmlns="http://www.w3.org/2000/svg" xmlns:xlink="http://www.w3.org/1999/xlink" fill="#fcfcfc"><g><path d="M0,16q0-3.25 1.266-6.219t 3.414-5.109t 5.109-3.406t 6.211-1.266q 3.266,0 6.227,1.266t 5.102,3.406t 3.406,5.102t 1.266,6.227q0,3.25 -1.266,6.211t-3.406,5.109t-5.109,3.414t-6.219,1.266t-6.211-1.266t-5.109-3.414t-3.414-5.109t-1.266-6.211zM 4,16q0,3.266 1.609,6.023t 4.367,4.367t 6.023,1.609t 6.023-1.609 t 4.367-4.367t 1.609-6.023t-1.609-6.023t-4.367-4.367t-6.023-1.609t-6.023,1.609t-4.367,4.367t-1.609,6.023zM 10.039,18.391q-0.117-0.594 0.117-1.156t 0.734-0.898t 1.109-0.336l 2,0 l0-6 q0-0.828 0.586-1.414t 1.414-0.586t 1.414,0.586t 0.586,1.414l0,6 l 2,0 q 0.609,0 1.117,0.336t 0.727,0.898q 0.234,0.563 0.117,1.156t-0.539,1.031 l-4,4q-0.578,0.578 -1.422,0.578q-0.828,0 -1.406-0.578l-4-4q-0.438-0.438 -0.555-1.031z"></path></g></svg>