<?xml version="1.0" encoding="utf-8"?> <!-- Generator: IcoMoon.io --> <!DOCTYPE svg PUBLIC "-//W3C//DTD SVG 1.1//EN" "http://www.w3.org/Graphics/SVG/1.1/DTD/svg11.dtd"> <svg width="32.19791793823242" height="32" viewBox="0 0 32.19791793823242 32" xmlns="http://www.w3.org/2000/svg" xmlns:xlink="http://www.w3.org/1999/xlink" fill="#fcfcfc"><g><path d="M 0.266,12.133q 0.547,2.070 2.078,3.617l 13.656,14.25l 13.656-14.25q 1.531-1.547 2.078-3.617t0-4.148t-2.078-3.625t-3.594-2.094t-4.133,0t-3.602,2.094l-2.328,2.844l-2.328-2.844q-1.531-1.547 -3.602-2.094t-4.133,0t-3.594,2.094t-2.078,3.625t0,4.148zM 4,10.055q0-1.664 1.172-2.852q 1.172-1.172 2.836-1.172t 2.836,1.172l 5.156,5.703 l 5.156-5.703q 1.172-1.172 2.836-1.172t 2.836,1.172q 1.172,1.188 1.172,2.852t-1.172,2.852l-10.828,11.391l-10.828-11.391q-1.172-1.188 -1.172-2.852z"></path></g></svg>