<?xml version="1.0" encoding="utf-8"?> <!-- Generator: IcoMoon.io --> <!DOCTYPE svg PUBLIC "-//W3C//DTD SVG 1.1//EN" "http://www.w3.org/Graphics/SVG/1.1/DTD/svg11.dtd"> <svg width="32" height="32" viewBox="0 0 32 32" xmlns="http://www.w3.org/2000/svg" xmlns:xlink="http://www.w3.org/1999/xlink" fill="#fcfcfc"><g><path d="M0,30q0,0.828 0.586,1.414t 1.414,0.586l 28,0 q 0.828,0 1.414-0.586t 0.586-1.414l0-22 q0-0.828 -0.586-1.414t-1.414-0.586l-8,0 l0-4 q0-0.828 -0.586-1.414t-1.414-0.586l-8,0 q-0.828,0 -1.414,0.586t-0.586,1.414l0,4 l-4,0 l0-2 l-2,0 l0,2 l-2,0 q-0.828,0 -1.414,0.586t-0.586,1.414l0,22 zM 4,28l0-10 l 6.375,0 q-0.375,1 -0.375,2q0,2.484 1.758,4.242t 4.242,1.758t 4.242-1.758t 1.758-4.242q0-0.969 -0.359-2l 6.359,0 l0,10 l-24,0 zM 4,16l0-6 l 24,0 l0,6 l-7.563,0 q-1.188-1.313 -2.828-1.773t-3.266,0.008t-2.781,1.766l-7.563,0 zM 6,14l 2,0 l0-2 l-2,0 l0,2 zM 10,14l 2,0 l0-2 l-2,0 l0,2 zM 12,20q0-1.656 1.172-2.828 t 2.828-1.172t 2.828,1.172t 1.172,2.828t-1.172,2.828t-2.828,1.172t-2.828-1.172t-1.172-2.828zM 14,6l0-2 l 4,0 l0,2 l-4,0 zM 22,14l 4,0 l0-2 l-4,0 l0,2 z"></path></g></svg>