<?xml version="1.0" encoding="utf-8"?> <!-- Generator: IcoMoon.io --> <!DOCTYPE svg PUBLIC "-//W3C//DTD SVG 1.1//EN" "http://www.w3.org/Graphics/SVG/1.1/DTD/svg11.dtd"> <svg width="32" height="32" viewBox="0 0 32 32" xmlns="http://www.w3.org/2000/svg" xmlns:xlink="http://www.w3.org/1999/xlink" fill="#fcfcfc"><g><path d="M0,26q0,2.484 1.758,4.242t 4.242,1.758l 20,0 q 2.484,0 4.242-1.758t 1.758-4.242l0-20 q0-2.484 -1.758-4.242t-4.242-1.758l-1.109,0 q 1.828,2.047 2.578,4.672q 0.531,0.578 0.531,1.328l0,20 q0,0.828 -0.586,1.414t-1.414,0.586l-20,0 q-0.828,0 -1.414-0.586t-0.586-1.414l0-20 q0-0.75 0.531-1.328q 0.75-2.625 2.578-4.672 l-1.109,0 q-2.484,0 -4.242,1.758t-1.758,4.242l0,20 zM 8,8q0,1.234 0.82,3.336t 2,4.227t 2.359,4.063t 2.008,3.156l 0.813,1.219q 0.328-0.469 0.867-1.273t 1.914-3.047t 2.43-4.18t 1.922-4.102t 0.867-3.398q0-3.313 -2.344-5.656t-5.656-2.344t-5.656,2.344t-2.344,5.656zM 12,8q0-1.656 1.172-2.828t 2.828-1.172t 2.828,1.172 t 1.172,2.828t-1.172,2.828t-2.828,1.172t-2.828-1.172t-1.172-2.828z"></path></g></svg>