<?xml version="1.0" encoding="utf-8"?> <!-- Generator: IcoMoon.io --> <!DOCTYPE svg PUBLIC "-//W3C//DTD SVG 1.1//EN" "http://www.w3.org/Graphics/SVG/1.1/DTD/svg11.dtd"> <svg width="32" height="32" viewBox="0 0 32 32" xmlns="http://www.w3.org/2000/svg" xmlns:xlink="http://www.w3.org/1999/xlink" fill="#fcfcfc"><g><path d="M0,26q0,2.484 1.758,4.242t 4.242,1.758l 20,0 q 2.484,0 4.242-1.758t 1.758-4.242l0-20 q0-2.484 -1.758-4.242t-4.242-1.758l-20,0 q-2.484,0 -4.242,1.758t-1.758,4.242l0,20 zM 4,26l0-20 q0-0.828 0.586-1.414t 1.414-0.586l 20,0 q 0.828,0 1.414,0.586t 0.586,1.414l0,20 q0,0.828 -0.586,1.414t-1.414,0.586l-20,0 q-0.828,0 -1.414-0.586t-0.586-1.414zM 6,24q0,0.828 0.586,1.414t 1.414,0.586l 16,0 q 0.828,0 1.414-0.586t 0.586-1.414l0-0.938 q-0.203-0.453 -1.117-2.695t-1.586-3.594t-1.297-2.086q-0.516-0.594 -1.102-0.633t-1.141,0.383t-1.164,1.125t-1.172,1.563t-1.172,1.727t-1.141,1.586t-1.109,1.172 t-1.063,0.453q-0.578,0 -1.688-1.422q-0.156-0.203 -0.453-0.625q-1.125-1.484 -1.625-1.828q-0.75-0.516 -1.172,0.375q-0.234,0.5 -0.93,2.219t-1.070,2.563l0,0.656 zM 6,9q0,1.25 0.875,2.125t 2.125,0.875t 2.125-0.875t 0.875-2.125t-0.875-2.125t-2.125-0.875t-2.125,0.875t-0.875,2.125z"></path></g></svg>