<?xml version="1.0" encoding="utf-8"?> <!-- Generator: IcoMoon.io --> <!DOCTYPE svg PUBLIC "-//W3C//DTD SVG 1.1//EN" "http://www.w3.org/Graphics/SVG/1.1/DTD/svg11.dtd"> <svg width="32" height="32" viewBox="0 0 32 32" xmlns="http://www.w3.org/2000/svg" xmlns:xlink="http://www.w3.org/1999/xlink" fill="#fcfcfc"><g><path d="M0,26l0-20 q0-2.484 1.758-4.242t 4.242-1.758l 12.344,0 l-4,4l-8.344,0 q-0.828,0 -1.414,0.586t-0.586,1.414l0,20 q0,0.828 0.586,1.414t 1.414,0.586l 20,0 q 0.828,0 1.414-0.586t 0.586-1.414l0-8.344 l 4-4l0,12.344 q0,2.484 -1.758,4.242t-4.242,1.758l-20,0 q-2.484,0 -4.242-1.758t-1.758-4.242z M 6,26l 4-12l 14-14l 8,8l-14,14zM 10,22l 6-2l-4-4zM 14,14l 4,4l 6-6l-4-4z"></path></g></svg>