<?xml version="1.0" encoding="utf-8"?> <!-- Generator: IcoMoon.io --> <!DOCTYPE svg PUBLIC "-//W3C//DTD SVG 1.1//EN" "http://www.w3.org/Graphics/SVG/1.1/DTD/svg11.dtd"> <svg width="32" height="32.646400451660156" viewBox="0 0 32 32.646400451660156" xmlns="http://www.w3.org/2000/svg" xmlns:xlink="http://www.w3.org/1999/xlink" fill="#fcfcfc"><g><path d="M 13.786,21.165C 12.946,25.57, 11.92,29.794, 8.88,32c-0.938-6.659, 1.378-11.659, 2.453-16.968 c-1.834-3.088, 0.221-9.299, 4.090-7.768c 4.76,1.883-4.122,11.477, 1.84,12.675c 6.226,1.251, 8.766-10.8, 4.907-14.718 C 16.592-0.44, 5.933,5.090, 7.245,13.19c 0.318,1.981, 2.365,2.582, 0.818,5.315c-3.57-0.79-4.635-3.606-4.498-7.36 C 3.786,5.003, 9.085,0.702, 14.4,0.107c 6.723-0.754, 13.032,2.467, 13.901,8.79c 0.981,7.136-3.032,14.866-10.222,14.309 C 16.131,23.058, 15.314,22.093, 13.786,21.165z"></path></g></svg>