<?xml version="1.0" encoding="UTF-8"?>
<!DOCTYPE svg PUBLIC "-//W3C//DTD SVG 1.1//EN" "http://www.w3.org/Graphics/SVG/1.1/DTD/svg11.dtd">
<!-- Creator: CorelDRAW -->
<svg xmlns="http://www.w3.org/2000/svg" xml:space="preserve" width="900px" height="900px" style="shape-rendering:geometricPrecision; text-rendering:geometricPrecision; image-rendering:optimizeQuality; fill-rule:evenodd; clip-rule:evenodd"
viewBox="0 0 91.5117 91.5117"
 xmlns:xlink="http://www.w3.org/1999/xlink">
 <defs>
  <style type="text/css">
   <![CDATA[
    .fil0 {fill:none}
    .fil2 {fill:#1F1A17}
    .fil3 {fill:white}
    .fil1 {fill:#1F1A17;fill-rule:nonzero}
   ]]>
  </style>
 </defs>
 <g id="Layer_x0020_1">
  <metadata id="CorelCorpID_0Corel-Layer"/>
  <g id="_63804384">
   <rect id="_63808936" class="fil0" width="91.5117" height="91.5117"/>
   <g>
    <path id="_63807296" class="fil1" d="M39.229 87.1063l2.60968 -11.0477 -7.69518 0 -2.57084 11.0477 7.65633 0zm3.33025 -14.0981l3.75346 0 9.21016 0 -1.26099 -5.33814 -18.1663 0 -1.24219 5.33814 7.70587 0zm20.3855 8.75992l1.26099 5.33814 14.035 0 -19.5497 -82.701 -7.87329 0 -1.24219 5.33814 4.89691 0 17.0151 72.0247 -8.54285 0zm-17.6846 -53.4805l-2.78036 11.9479 2.31943 10.2961 1.62904 0 0 3.05035 -7.05432 0 -1.24219 5.33814 14.0292 0 -1.20255 -5.33814 -3.84781 0 1.90015 -8.64576 -3.75054 -16.6485zm-3.97188 17.0681l-1.20447 5.17579 2.37043 0 -1.16596 -5.17579zm6.39771 -40.9505l-13.7854 0 -1.2611 5.33814 13.8043 0 1.24219 -5.33814zm-16.2083 46.1262l5.47437 0 2.79568 -12.0138 0.63511 -2.72891 1.8031 -7.74854 -5.76519 0 -4.94307 22.4913zm-5.24132 22.4766l5.48518 0 1.24219 -5.33814 -5.46638 0 -1.26099 5.33814zm8.76364 -14.0882l1.24219 -5.33814 -5.43497 0 -1.17317 5.33814 5.36595 0zm-19.3757 22.8481l-1.2611 5.33814 14.0777 0 2.57084 -11.0477 -5.49588 0 -1.34869 5.70957 -8.54285 0zm72.3619 0.744208l-18.452 -78.107 -7.70891 0 19.5497 82.701 6.61118 -4.59393z"/>
    <path id="_63806480" class="fil2" d="M50.0378 73.0082l-18.3163 0 -3.33025 14.0981 -24.8658 0 19.5374 -82.701 35.6336 0 19.5373 82.701 -24.8658 0 -3.33025 -14.0981zm-4.55126 -19.4263l-4.55138 -20.2035 -0.222024 0 -4.44025 20.2035 9.21365 0z"/>
    <path id="_63804592" class="fil3" d="M24.1672 81.7682l3.33025 -14.0981 26.7645 0 3.33025 14.0981 13.8955 0 -17.0151 -72.0247 -27.1856 0 -17.0152 72.0247 13.8955 0zm27.9938 -22.8481l-22.5269 0 6.7867 -30.8798 8.78368 0 6.95648 30.8798z"/>
   </g>
  </g>
 </g>
</svg>
