<?xml version="1.0" encoding="UTF-8"?>
<!DOCTYPE svg PUBLIC "-//W3C//DTD SVG 1.1//EN" "http://www.w3.org/Graphics/SVG/1.1/DTD/svg11.dtd">
<!-- Creator: CorelDRAW -->
<svg xmlns="http://www.w3.org/2000/svg" xml:space="preserve" width="900px" height="900px" style="shape-rendering:geometricPrecision; text-rendering:geometricPrecision; image-rendering:optimizeQuality; fill-rule:evenodd; clip-rule:evenodd"
viewBox="0 0 119.147 119.147"
 xmlns:xlink="http://www.w3.org/1999/xlink">
 <defs>
  <style type="text/css">
   <![CDATA[
    .fil0 {fill:none}
    .fil1 {fill:#1F1A17}
    .fil2 {fill:white}
   ]]>
  </style>
 </defs>
 <g id="Layer_x0020_1">
  <metadata id="CorelCorpID_0Corel-Layer"/>
  <g id="_64017896">
   <rect id="_64034400" class="fil0" width="119.147" height="119.147"/>
   <g>
    <path id="_64034192" class="fil1" d="M80.0178 56.5477c0.168723,-0.814444 0.427158,-1.60573 0.656276,-2.28399l0.00982141 -0.0293177 0.0105544 -0.0288779c0.0907381,-0.250519 0.16154,-0.503384 0.235274,-0.761379l0.0187633 -0.0658181 0.0216951 -0.0644988c0.70421,-2.08009 1.6544,-4.26161 2.98146,-5.85547 1.22181,-1.4675 2.71262,-2.37795 4.44631,-2.37795 1.26784,0 2.45506,0.526692 3.50727,1.36518 0.9474,0.746281 1.75188,1.73223 2.44964,2.80951 0.609514,-0.834967 1.2655,-1.61291 1.96164,-2.24852l0.0208155 -0.0189099c1.27209,-1.13107 2.72185,-1.81403 4.30735,-1.81403 1.22431,0 2.39291,0.46146 3.44116,1.21536 1.07435,0.772813 1.97557,1.81887 2.70265,3.04962 0.812392,1.375 1.34803,2.93543 1.43407,4.63761 0.0970414,1.92426 -0.458968,4.28639 -0.949599,6.10687 -0.236593,0.86663 -0.504703,1.72945 -0.754197,2.59329 -0.214605,0.739831 -0.833941,2.96357 -0.92292,4.09714 0.0187633,0.00439765 0.0382595,0.00674306 0.0587819,0.00674306 0.806089,0 1.79776,-0.81679 2.3998,-1.3942 1.28704,-1.23427 2.318,-2.88456 3.15179,-4.58807l0.0243337 -0.0494002 0.0259461 -0.0480809c0.47392,-0.873519 0.862818,-1.84862 1.20525,-2.80731 0.537393,-1.50414 1.26828,-3.31026 2.85173,-3.31026 0.556449,0 1.07537,0.200386 1.5531,0.538565l0.0259461 0.0183235 0.0255064 0.0192031c0.403557,0.30549 0.748333,0.700252 1.05104,1.14397l0.0452958 0.0665511 0.0414845 0.0700692c1.23838,2.09665 -0.264152,5.51465 -1.08637,7.48362l-0.00806235 0.0194962 -0.100999 0.231463c-1.20217,2.68095 -2.72977,5.13103 -4.68877,7.06643 -1.61438,1.58271 -3.56605,2.91242 -5.69422,2.91242 -1.55384,0 -3.01679,-0.537246 -4.37551,-1.43525 -1.38057,-0.912658 -2.55562,-2.13125 -3.47326,-3.6845 -1.06276,-1.79908 -1.69412,-3.82991 -1.83822,-6.03826 -0.145416,-2.22931 0.242017,-4.42213 0.994601,-6.45091 0.204051,-0.599253 0.429357,-1.19337 0.657009,-1.78325 -0.497667,0.826904 -0.943295,1.74044 -1.32838,2.58098 -2.02292,4.41465 -3.33078,9.63334 -4.27026,14.5355l-0.231903 1.21053 -0.93538 0.498986c-0.415285,0.221495 -0.864724,0.327332 -1.31724,0.393883 -0.630623,0.0889791 -1.32706,0.0790111 -1.96252,0.0790111 -0.694242,0 -1.5144,-0.0101146 -2.19677,-0.191884 -0.788058,-0.190711 -1.49256,-0.674013 -1.96751,-1.47849 -1.09604,-1.85595 -0.20493,-4.8701 0.368523,-6.79407 0.385967,-1.32076 0.762552,-2.66248 1.0742,-4.01227l0.0233075 -0.100999 0.316337 -1.02758c0.254184,-0.992402 0.916323,-3.63172 1.3061,-5.76634 -0.317217,0.734554 -0.597054,1.52027 -0.802717,2.11395l-0.0234541 0.0675772 -0.0265325 0.0656715c-0.213579,0.526985 -0.384208,1.12609 -0.547947,1.68005 -0.123134,0.438299 -0.271042,0.882168 -0.453984,1.29555 -0.223254,0.730889 -0.585767,1.42938 -1.00398,2.05399 -1.14735,1.6972 -2.71291,2.58552 -4.51726,2.58552 -1.09091,0 -2.15705,-0.267084 -3.17906,-0.723413 -0.357675,-0.155823 -0.711539,-0.33686 -1.06013,-0.536366 -0.785713,2.47573 -1.82854,4.88637 -3.24649,6.82808 -1.72784,2.36652 -3.9035,3.86333 -6.53886,3.86333 -1.7532,0 -3.40437,-0.639418 -4.91892,-1.7013 -1.41956,-1.00516 -2.63727,-2.30671 -3.63612,-3.87535 -0.75493,1.17036 -1.63255,2.22125 -2.64812,3.11837 -1.92221,1.68518 -4.09333,2.62921 -6.46659,2.62921 -2.33662,0 -4.52489,-0.915004 -6.52215,-2.34849 -2.00269,-1.43744 -3.69652,-3.3318 -5.10025,-5.5683 -1.01762,1.87193 -2.22712,3.57793 -3.67086,5.00438 -1.61452,1.58271 -3.5662,2.91242 -5.69437,2.91242 -1.55384,0 -3.01679,-0.537246 -4.37537,-1.43525 -1.38071,-0.912658 -2.55577,-2.13125 -3.47341,-3.6845 -1.06262,-1.79908 -1.69412,-3.82991 -1.83822,-6.03826 -0.145269,-2.22931 0.242164,-4.42213 0.994601,-6.45091 0.204197,-0.599253 0.429357,-1.19337 0.657155,-1.78325 -0.497814,0.826904 -0.943442,1.74044 -1.32853,2.58098 -2.02292,4.41465 -3.33063,9.63334 -4.27026,14.5355l-0.231903 1.21053 -0.93538 0.498986c-0.415285,0.221495 -0.864578,0.327332 -1.31724,0.393883 -0.630476,0.0891257 -1.32706,0.0790111 -1.96252,0.0790111 -0.694095,0 -1.5144,-0.0101146 -2.19677,-0.191884 -0.788058,-0.190711 -1.49242,-0.674013 -1.96751,-1.47849 -1.09604,-1.85595 -0.20493,-4.8701 0.368669,-6.79407 0.385967,-1.32076 0.762406,-2.66248 1.07405,-4.01227l0.0233075 -0.100999 0.316337 -1.02758c0.254184,-0.992402 0.916323,-3.63172 1.3061,-5.76634 -0.31707,0.734554 -0.597054,1.52027 -0.802717,2.11395l-0.0234541 0.0675772 -0.0265325 0.0656715c-0.213579,0.526985 -0.384208,1.12609 -0.547947,1.68005 -0.447534,1.59429 -1.22387,3.26247 -2.81757,3.26247 -0.563485,0 -1.1151,-0.215338 -1.60118,-0.554543 -0.46146,-0.313259 -0.868389,-0.732208 -1.1774,-1.25568 -1.00926,-1.70834 -0.233808,-4.17395 0.350346,-5.90399l0.009968 -0.0293177 0.0104078 -0.0288779c0.0908847,-0.250519 0.16154,-0.503384 0.235274,-0.761379l0.0187633 -0.0658181 0.0218417 -0.0644988c0.70421,-2.08009 1.65425,-4.26161 2.98146,-5.85547 1.22167,-1.4675 2.71247,-2.37795 4.44617,-2.37795 1.26784,0 2.45521,0.526545 3.50742,1.36518 0.947253,0.746427 1.75173,1.73223 2.44964,2.80951 0.609367,-0.834967 1.26535,-1.61291 1.9615,-2.24852l0.0208155 -0.0189099c1.27209,-1.13107 2.722,-1.81403 4.30735,-1.81403 1.22445,0 2.39291,0.46146 3.44116,1.21536 1.07435,0.772813 1.97557,1.81887 2.70265,3.04962 0.812392,1.375 1.34817,2.93543 1.43407,4.63761 0.0970414,1.92426 -0.458821,4.28639 -0.949452,6.10687 -0.23674,0.86663 -0.50485,1.72945 -0.754197,2.59329 -0.214605,0.739831 -0.834087,2.96357 -0.923066,4.09714 0.0187633,0.00439765 0.0382595,0.00674306 0.0589285,0.00674306 0.806089,0 1.79761,-0.81679 2.39965,-1.3942 1.28704,-1.23427 2.31815,-2.88456 3.15194,-4.58807l0.0241871 -0.0494002 0.0259461 -0.0480809c0.47392,-0.873519 0.862818,-1.84862 1.20525,-2.80731 0.176052,-0.492537 0.372627,-1.01732 0.613325,-1.50048 0.122548,-1.95109 0.651731,-3.7981 1.53009,-5.50747l0.0145122 -0.0281449 0.0150986 -0.0277052c0.950625,-1.74411 2.12846,-3.26613 3.61809,-4.32479 1.44096,-1.03609 3.03101,-1.52422 4.70343,-1.52422 1.319,0 2.666,0.238206 3.8585,0.956782l0.0155384 0.00952824c1.19381,0.73514 2.15455,1.89363 2.92942,3.20545 1.90653,3.22714 1.89773,6.76138 0.137207,10.0822 -1.46647,2.76597 -3.76717,4.48971 -6.25756,5.57504 0.0158315,0.0278518 0.0319562,0.0555569 0.0482275,0.0831155 0.382009,0.646894 0.838778,1.15394 1.41516,1.53067 0.515404,0.337006 1.05441,0.528011 1.64062,0.528011 1.22636,0 2.28546,-0.634874 3.22201,-1.55633 1.36796,-1.3577 2.41504,-3.22641 3.21644,-5.12429 0.298014,-0.795828 0.558648,-1.62361 0.805942,-2.44421l0.00923506 -0.0307835 0.0101146 -0.0306369c0.0732941,-0.22472 0.151572,-0.453984 0.237033,-0.681196 0.331436,-2.03846 1.0355,-3.94967 2.00899,-5.71577 1.10601,-2.02907 2.55283,-3.64712 4.31013,-4.80824 1.69749,-1.14251 3.55007,-1.7658 5.49178,-1.7658 1.6563,0 3.23388,0.558794 4.68833,1.50385 1.46618,0.951211 2.72537,2.25277 3.69578,3.89544 0.68618,1.16171 1.15482,2.44612 1.42924,3.83739l0.00483741 0.0241871 0.00425106 0.0241871c0.170482,0.9474 0.243776,1.9143 0.235274,2.88149 0.225893,0.171948 0.46102,0.323374 0.705529,0.445042 0.393589,0.193057 0.813565,0.316044 1.23955,0.316044 0.337593,0 0.523467,-0.223254 0.714618,-0.542377 0.143363,-0.241871 0.296401,-0.489605 0.459994,-0.731475zm-36.5332 0.395349c0.816936,-0.502065 1.55853,-1.14383 2.07818,-1.96663 0.487113,-0.77941 0.790404,-1.46383 0.288486,-2.31346 -0.0861939,-0.145855 -0.256676,-0.421295 -0.394176,-0.563339 -0.0194962,-0.00322494 -0.0426572,-0.00395788 -0.0571694,-0.00395788 -0.543256,0 -0.90269,0.858714 -1.09399,1.36005l-0.00586353 0.0153918c-0.384501,0.98991 -0.64103,2.21744 -0.81547,3.47194zm21.3444 9.88445c0.0845814,0.0463219 0.205517,0.0527718 0.292737,0.0527718 0.688965,0 1.34934,-0.609661 1.81901,-1.1642l0.00908847 -0.0105544c1.08006,-1.25963 1.92324,-3.12042 2.54096,-4.75708 0.586646,-1.56102 1.03565,-3.28534 1.0978,-5.01039 0.0329824,-0.914857 -0.0370868,-2.06865 -0.492683,-2.84 -0.163153,-0.276172 -0.348147,-0.489018 -0.590751,-0.656422 -0.138379,-0.0952824 -0.301825,-0.175026 -0.463365,-0.175026 -0.407662,0 -0.952824,0.527278 -1.22856,0.830569 -0.777504,0.865457 -1.34275,2.02116 -1.76243,3.19445l-0.00908847 0.02492 -0.00923506 0.0247734c-0.811952,2.13975 -1.48743,4.4812 -1.72696,6.82251 -0.0724146,0.74115 -0.185727,2.58464 0.202732,3.24224 0.0659647,0.1117 0.214165,0.341257 0.320735,0.421441z"/>
    <g>
     <g>
      <path id="_64031752" class="fil2" d="M86.8943 70.212c0.450319,0.122694 1.03609,0.100706 1.50209,0.100706 0.492976,0 0.997093,0.0192031 1.48758,-0.0395788 0.962938,-4.84562 2.23826,-9.8069 4.25766,-14.3259l-0.91647 -1.7488c-0.232782,-0.444309 -0.459994,-0.89199 -0.687939,-1.33952 -0.118443,-0.235421 -0.242017,-0.468789 -0.375999,-0.695708 -0.532702,-0.901811 -1.19748,-1.85742 -2.02526,-2.50813 -0.490191,-0.391684 -1.09428,-0.727371 -1.73795,-0.727371 -0.665804,0 -1.22255,0.309301 -1.69163,0.736459 0.532848,-0.415871 1.15878,-0.6853 1.87911,-0.6853 0.401945,0 0.737632,0.186607 1.04019,0.43698 0.289512,0.239672 0.527425,0.542523 0.738365,0.851678l0.0256529 0.0375266 0.0221348 0.0381129c0.633848,1.07259 0.376439,3.02983 0.201119,4.22467 -0.356209,2.42721 -0.943149,4.81352 -1.55266,7.18825l-0.0109941 0.0408981 -0.2986 0.970561c-0.329091,1.41766 -0.721214,2.81992 -1.1299,4.21705 -0.183382,0.615817 -0.711393,2.49303 -0.726491,3.22743zm13.7144 -21.1908c0.299773,0.0583421 0.587233,0.173854 0.85329,0.326892 0.42408,0.238206 0.778823,0.574773 1.0267,0.994455 0.438885,0.743056 0.289365,1.71362 0.097921,2.51091 -0.247148,1.03052 -0.616257,2.02658 -0.998559,3.01298 -0.291857,0.753464 -0.588698,1.50531 -0.848306,2.2708l-0.00923506 0.0268257 -0.00644988 0.0170042c-0.54868,1.46808 -0.840537,3.04361 -0.738218,4.61313 0.0957221,1.46779 0.509981,2.8466 1.25743,4.11209 0.380836,0.644549 0.835993,1.21873 1.36782,1.72007 -0.668003,-1.85449 0.390365,-5.42552 0.880556,-7.1151 0.243043,-0.84171 0.503677,-1.67785 0.734407,-2.52264 0.366764,-1.36122 0.867802,-3.27801 0.797147,-4.6791 -0.0477878,-0.945934 -0.370429,-1.83323 -0.849186,-2.64357 -0.447974,-0.758301 -1.01864,-1.46002 -1.73751,-1.97704 -0.520388,-0.374093 -1.13899,-0.668003 -1.7916,-0.668003 -0.0121668,0 -0.0241871,0.000146588 -0.0362073,0.000293177z"/>
     </g>
     <g>
      <path id="_64028640" class="fil2" d="M73.6788 57.5261c-0.206543,1.71303 -0.661846,3.39792 -1.26755,5.00907 -0.774572,2.05297 -1.79072,4.2556 -3.22348,5.92627 -0.39183,0.462633 -0.83438,0.90313 -1.32545,1.27077 0.865897,-0.470988 1.58301,-1.22474 2.18607,-2.05048 1.69368,-2.31932 2.71731,-5.52081 3.39528,-8.2988l0.1375 -0.562166 -0.00688965 -0.00703624 0.0639125 -0.705969c0.0175906,-0.19335 0.0312233,-0.387286 0.0406049,-0.581662zm-6.16711 -8.73681c-0.221641,-0.0315165 -0.445628,-0.0480809 -0.671228,-0.0480809 -1.4329,0 -2.75307,0.485647 -3.9356,1.28309 -1.36503,0.900052 -2.41064,2.13095 -3.18991,3.56209 -1.06672,1.93335 -1.69309,4.01842 -1.69295,6.23748 -0.00307835,2.15822 0.583714,4.1461 1.6758,5.99487 0.558501,0.945494 1.23618,1.80479 2.04373,2.53524 -0.826465,-1.64443 -0.79099,-3.88136 -0.618163,-5.64775 0.278078,-2.72112 1.01967,-5.39635 1.98671,-7.94655 0.577997,-1.61203 1.37852,-3.21014 2.53055,-4.49234 0.526105,-0.578877 1.15424,-1.13064 1.87105,-1.47805z"/>
     </g>
     <g>
      <path id="_64025064" class="fil2" d="M43.362 48.9402c-0.975105,0.0650852 -1.86871,0.384941 -2.68095,0.969095 -1.1,0.781609 -1.93057,1.94083 -2.56925,3.11031 -0.807408,1.57509 -1.17153,3.24283 -1.05118,5.01552 0.133542,1.96883 0.835113,3.81188 1.83206,5.49941 0.862525,1.45987 1.89949,2.82036 3.14065,3.9702 -0.059808,-0.0938165 -0.11815,-0.188952 -0.175026,-0.285114 -0.313259,-0.530356 -0.575652,-1.0912 -0.794069,-1.66686 -0.238499,-0.627984 -0.426865,-1.27517 -0.552931,-1.93511l-0.249786 -1.30566 1.10689 -0.318976c2.01999,-0.582542 3.96814,-1.51147 5.388,-3.02221 -1.46867,1.42264 -3.35951,2.33926 -5.34754,2.93484l-1.54519 0.462926 0.0905915 -1.86328c0.136034,-2.78459 0.427158,-6.05116 1.43876,-8.65618 0.406782,-1.06599 1.0311,-2.20337 1.96897,-2.9089zm12.8032 14.6248c-0.876598,1.78867 -1.9766,3.51123 -3.37505,4.89942 -0.233515,0.229704 -0.475532,0.449293 -0.726345,0.655836 0.259901,-0.184261 0.512326,-0.384941 0.757422,-0.599839 1.51426,-1.33762 2.57893,-3.0999 3.34397,-4.95542z"/>
     </g>
     <g>
      <path id="_64022584" class="fil2" d="M7.49183 49.6641c0.532848,-0.415871 1.15849,-0.6853 1.87882,-0.6853 0.402092,0 0.737632,0.18646 1.04004,0.43698 0.289805,0.239672 0.527718,0.542377 0.738658,0.851678l0.0250666 0.0367937 0.0228678 0.0385527c0.633408,1.07259 0.376292,3.03013 0.201119,4.22497 -0.356209,2.42721 -0.943295,4.81337 -1.55266,7.18825l-0.0109941 0.0408981 -0.298747 0.970561c-0.328944,1.41766 -0.721214,2.81992 -1.12976,4.21705 -0.183382,0.615817 -0.711393,2.49303 -0.726638,3.22743 0.450173,0.122694 1.03623,0.100706 1.50209,0.100706 0.492976,0 0.99724,0.0192031 1.48772,-0.0395788 0.962938,-4.84577 2.23811,-9.8069 4.25766,-14.3259l-0.916323 -1.7488c-0.233222,-0.444309 -0.460287,-0.891843 -0.687939,-1.33938 -0.118736,-0.235421 -0.24231,-0.468789 -0.376292,-0.695854 -0.532702,-0.901811 -1.19748,-1.85742 -2.02497,-2.50827 -0.490338,-0.391537 -1.09428,-0.727224 -1.73824,-0.727224 -0.665804,0 -1.22255,0.309155 -1.69148,0.736459zm13.9021 -0.642936c0.29992,0.0583421 0.587379,0.174 0.853437,0.326892 0.42408,0.238206 0.778677,0.574773 1.0267,0.994455 0.438885,0.743056 0.289365,1.71362 0.0977744,2.51091 -0.247148,1.03037 -0.61611,2.02658 -0.998413,3.01312 -0.291857,0.753317 -0.588698,1.50517 -0.848306,2.27065l-0.00923506 0.0268257 -0.00644988 0.0170042c-0.548973,1.46808 -0.840684,3.04361 -0.738512,4.61313 0.0960153,1.46779 0.510127,2.8466 1.25758,4.11209 0.380836,0.644549 0.835993,1.21873 1.36782,1.72007 -0.668003,-1.85449 0.390511,-5.42552 0.880702,-7.1151 0.242897,-0.841563 0.503677,-1.67785 0.734261,-2.52264 0.36691,-1.36107 0.868096,-3.27801 0.797294,-4.67895 -0.0479344,-0.946081 -0.370575,-1.83338 -0.849332,-2.64372 -0.447827,-0.758448 -1.01864,-1.46002 -1.73751,-1.97704 -0.520388,-0.37424 -1.13899,-0.668003 -1.79175,-0.668003 -0.0120202,0 -0.0240405,0.000146588 -0.0360607,0.000293177z"/>
     </g>
    </g>
    <path id="_64020568" class="fil1" d="M64.5378 9.7383l0 26.7188 -9.92872 0 0 -26.7188c0,-2.74135 2.22301,-4.96436 4.96436,-4.96436 2.74135,0 4.96436,2.22301 4.96436,4.96436zm-46.7794 1.7123c1.86211,0 3.48484,1.02597 4.33432,2.54316l13.3243 23.0783 -8.59857 4.96421 -13.3345 -23.0962c-0.438006,-0.739831 -0.689844,-1.60309 -0.689844,-2.52513 0,-2.74135 2.22301,-4.96436 4.96436,-4.96436zm83.6302 0c2.74135,0 4.96436,2.22301 4.96436,4.96436 0,0.92204 -0.251839,1.7853 -0.689844,2.52513l-13.3345 23.0962 -8.59857 -4.96436 13.3243 -23.0781c0.849479,-1.51719 2.47221,-2.54316 4.33432,-2.54316z"/>
    <path id="_64018632" class="fil1" d="M54.6091 82.69l9.92872 0 0 26.7188c0,2.74135 -2.22301,4.96436 -4.96436,4.96436 -2.74135,0 -4.96436,-2.22301 -4.96436,-4.96436l0 -26.7188zm51.0391 17.4916c0.447241,0.745548 0.704796,1.61789 0.704796,2.55034 0,2.74135 -2.22301,4.96436 -4.96436,4.96436 -1.85903,0 -3.47942,-1.02245 -4.33007,-2.53554l-13.3287 -23.0856 8.59857 -4.96436 13.3197 23.0708zm-83.5596 4.97931c-0.850652,1.51308 -2.47104,2.53554 -4.33007,2.53554 -2.74135,0 -4.96436,-2.22301 -4.96436,-4.96436 0,-0.92204 0.251839,-1.7853 0.689844,-2.52513l13.3347 -23.0962 8.59843 4.96436 -13.3285 23.0857z"/>
   </g>
  </g>
 </g>
</svg>
