<?xml version="1.0" encoding="utf-8"?>
<!-- Generator: IcoMoon.io  -->
<!DOCTYPE svg PUBLIC "-//W3C//DTD SVG 1.1//EN" "http://www.w3.org/Graphics/SVG/1.1/DTD/svg11.dtd">
<svg width="992" height="96" viewBox="0 0 992 96" data-du="ï€" style="margin-left: 0px; margin-top: 0px;" xmlns="http://www.w3.org/2000/svg" fill="#fcfcfc"><path d="M0,1664q0,159 112.5,271.5t 271.5,112.5l1280,0 q 159,0 271.5-112.5t 112.5-271.5l0,-1280 q0-159 -112.5-271.5t-271.5-112.5l-1280,0 q-159,0 -271.5,112.5t-112.5,271.5l0,1280 zM 256,1664l0,-1280 q0-53 37.5-90.5t 90.5-37.5l1280,0 q 53,0 90.5,37.5t 37.5,90.5l0,1280  q0,53 -37.5,90.5t-90.5,37.5l-1280,0 q-53,0 -90.5-37.5t-37.5-90.5zM 384,1536q0,53 37.5,90.5t 90.5,37.5l1024,0 q 53,0 90.5-37.5t 37.5-90.5l0,-60 q-13-29 -71.5-172.5t-101.5-230t-83-133.5q-33-38 -70.5-40.5t-73,24.5t-74.5,72t-75,100t-75,110.5t-73,101.5t-71,75 t-68,29q-37,0 -108-91q-10-13 -29-40q-72-95 -104-117q-48-33 -75,24q-15,32 -59.5,142t-68.5,164l0,42 zM 384,576q0,80 56,136t 136,56t 136-56t 56-136t-56-136t-136-56t-136,56t-56,136z" transform="scale(0.015625 0.015625)"></path><path d="M 64.266,12.156q 0.547,2.063 2.078,3.594l 13.656,14.156l 13.656-14.156q 1.531-1.531 2.078-3.594t0-4.125t-2.078-3.594t-3.594-2.078t-4.133,0t-3.602,2.078l-2.328,2.828l-2.328-2.828q-1.531-1.531 -3.602-2.078t-4.133,0t-3.594,2.078t-2.078,3.594t0,4.125z"></path><path d="M 128.266,12.133q 0.547,2.070 2.078,3.617l 13.656,14.25l 13.656-14.25q 1.531-1.547 2.078-3.617t0-4.148t-2.078-3.625t-3.594-2.094t-4.133,0t-3.602,2.094l-2.328,2.844l-2.328-2.844q-1.531-1.547 -3.602-2.094t-4.133,0t-3.594,2.094t-2.078,3.625t0,4.148zM 132,10.055q0-1.664 1.172-2.852q 1.172-1.172 2.836-1.172t 2.836,1.172l 5.156,5.703 l 5.156-5.703q 1.172-1.172 2.836-1.172t 2.836,1.172q 1.172,1.188 1.172,2.852t-1.172,2.852l-10.828,11.391l-10.828-11.391q-1.172-1.188 -1.172-2.852z"></path><path d="M 192,30q0,0.828 0.586,1.414t 1.414,0.586l 28,0 q 0.828,0 1.414-0.586t 0.586-1.414l0-22 q0-0.828 -0.586-1.414t-1.414-0.586l-8,0 l0-4 q0-0.828 -0.586-1.414t-1.414-0.586l-8,0 q-0.828,0 -1.414,0.586t-0.586,1.414l0,4 l-4,0 l0-2 l-2,0 l0,2 l-2,0 q-0.828,0 -1.414,0.586t-0.586,1.414l0,22 zM 196,28l0-10 l 6.375,0  q-0.375,1 -0.375,2q0,2.484 1.758,4.242t 4.242,1.758t 4.242-1.758t 1.758-4.242q0-0.969 -0.359-2l 6.359,0 l0,10 l-24,0 zM 196,16l0-6 l 24,0 l0,6 l-7.563,0 q-1.188-1.313 -2.828-1.773t-3.266,0.008t-2.781,1.766l-7.563,0 zM 198,14l 2,0 l0-2 l-2,0 l0,2 zM 202,14l 2,0 l0-2 l-2,0 l0,2 zM 204,20q0-1.656 1.172-2.828 t 2.828-1.172t 2.828,1.172t 1.172,2.828t-1.172,2.828t-2.828,1.172t-2.828-1.172t-1.172-2.828zM 206,6l0-2 l 4,0 l0,2 l-4,0 zM 214,14l 4,0 l0-2 l-4,0 l0,2 z"></path><path d="M 256,26q0,2.484 1.758,4.242t 4.242,1.758l 20,0 q 2.484,0 4.242-1.758t 1.758-4.242l0-20 q0-2.484 -1.758-4.242t-4.242-1.758l-1.109,0 q 1.828,2.047 2.578,4.672q 0.531,0.578 0.531,1.328l0,20 q0,0.828 -0.586,1.414t-1.414,0.586l-20,0 q-0.828,0 -1.414-0.586t-0.586-1.414l0-20 q0-0.75 0.531-1.328q 0.75-2.625 2.578-4.672 l-1.109,0 q-2.484,0 -4.242,1.758t-1.758,4.242l0,20 zM 264,8q0,1.234 0.82,3.336t 2,4.227t 2.359,4.063t 2.008,3.156l 0.813,1.219q 0.328-0.469 0.867-1.273t 1.914-3.047t 2.43-4.18t 1.922-4.102t 0.867-3.398q0-3.313 -2.344-5.656t-5.656-2.344t-5.656,2.344t-2.344,5.656zM 268,8q0-1.656 1.172-2.828t 2.828-1.172t 2.828,1.172 t 1.172,2.828t-1.172,2.828t-2.828,1.172t-2.828-1.172t-1.172-2.828z"></path><path d="M 320,16q 0.047,0.125 0.148,0.352t 0.484,0.906t 0.844,1.344t 1.242,1.563t 1.664,1.672t 2.133,1.563t 2.625,1.344t 3.156,0.906t 3.703,0.352t 3.703-0.344t 3.164-0.922t 2.617-1.328t 2.133-1.578t 1.656-1.656t 1.25-1.578t 0.836-1.328t 0.484-0.922l 0.156-0.344q-0.047-0.125 -0.148-0.352t-0.484-0.906t-0.844-1.344t-1.242-1.563t-1.664-1.672t-2.133-1.563t-2.625-1.344t-3.156-0.906t-3.703-0.352 t-3.703,0.344t-3.164,0.922t-2.617,1.328t-2.133,1.578t-1.656,1.656t-1.25,1.578t-0.836,1.328t-0.484,0.922zM 330,16q0-2.484 1.758-4.242t 4.242-1.758t 4.242,1.758t 1.758,4.242t-1.758,4.242t-4.242,1.758t-4.242-1.758t-1.758-4.242zM 332,16q0,1.656 1.172,2.828t 2.828,1.172t 2.828-1.172t 1.172-2.828t-1.172-2.828 t-2.828-1.172t-2.828,1.172l 2.828,2.828l-4,0 z"></path><path d="M 384,26q0,2.484 1.758,4.242t 4.242,1.758l 20,0 q 2.484,0 4.242-1.758t 1.758-4.242l0-20 q0-2.484 -1.758-4.242t-4.242-1.758l-20,0 q-2.484,0 -4.242,1.758t-1.758,4.242l0,20 zM 388,26l0-20 q0-0.828 0.586-1.414t 1.414-0.586l 20,0 q 0.828,0 1.414,0.586t 0.586,1.414l0,20  q0,0.828 -0.586,1.414t-1.414,0.586l-20,0 q-0.828,0 -1.414-0.586t-0.586-1.414zM 392,24l 16,0 l0-4 l-16,0 l0,4 zM 392,18l 16,0 l0-4 l-16,0 l0,4 zM 392,12l 16,0 l0-4 l-16,0 l0,4 z"></path><path d="M 456,24l 16,0 l0-4 l-16,0 l0,4 zM 456,18l 16,0 l0-4 l-16,0 l0,4 zM 456,12l 16,0 l0-4 l-16,0 l0,4 z"></path><path d="M 512,26l0-20 q0-2.484 1.758-4.242t 4.242-1.758l 12.344,0 l-4,4l-8.344,0 q-0.828,0 -1.414,0.586t-0.586,1.414l0,20 q0,0.828 0.586,1.414t 1.414,0.586l 20,0 q 0.828,0 1.414-0.586t 0.586-1.414l0-8.344 l 4-4l0,12.344 q0,2.484 -1.758,4.242t-4.242,1.758l-20,0 q-2.484,0 -4.242-1.758t-1.758-4.242z M 518,26l 4-12l 14-14l 8,8l-14,14zM 522,22l 6-2l-4-4zM 526,14l 4,4l 6-6l-4-4z"></path><path d="M 576.375,16q0,1.625 1.141,2.766t 2.766,1.141t 2.766-1.141t 1.141-2.766t-1.141-2.766t-2.766-1.141t-2.766,1.141t-1.141,2.766zM 588.094,16q0,1.625 1.141,2.766t 2.766,1.141t 2.766-1.141t 1.141-2.766t-1.141-2.766t-2.766-1.141t-2.766,1.141t-1.141,2.766zM 599.813,16q0,1.625 1.141,2.766t 2.766,1.141t 2.766-1.141t 1.141-2.766t-1.141-2.766t-2.766-1.141t-2.766,1.141t-1.141,2.766z"></path><path d="M 640,16q0-3.25 1.266-6.219t 3.414-5.109t 5.109-3.406t 6.211-1.266q 3.266,0 6.227,1.266t 5.102,3.406t 3.406,5.102t 1.266,6.227q0,3.25 -1.266,6.211t-3.406,5.109t-5.109,3.414t-6.219,1.266t-6.211-1.266t-5.109-3.414t-3.414-5.109t-1.266-6.211zM 644,16q0,3.266 1.609,6.023t 4.367,4.367t 6.023,1.609t 6.023-1.609 t 4.367-4.367t 1.609-6.023t-1.609-6.023t-4.367-4.367t-6.023-1.609t-6.023,1.609t-4.367,4.367t-1.609,6.023zM 650.039,13.609q 0.117-0.594 0.555-1.031l 4-4q 0.578-0.578 1.406-0.578q 0.844,0 1.422,0.578l 4,4q 0.422,0.438 0.539,1.031t-0.117,1.156q-0.219,0.563 -0.727,0.898t-1.117,0.336l-2,0 l0,6 q0,0.828 -0.586,1.414 t-1.414,0.586t-1.414-0.586t-0.586-1.414l0-6 l-2,0 q-0.609,0 -1.109-0.336t-0.734-0.898t-0.117-1.156z"></path><path d="M 704,16q0-3.25 1.266-6.219t 3.414-5.109t 5.109-3.406t 6.211-1.266q 3.266,0 6.227,1.266t 5.102,3.406t 3.406,5.102t 1.266,6.227q0,3.25 -1.266,6.211t-3.406,5.109t-5.109,3.414t-6.219,1.266t-6.211-1.266t-5.109-3.414t-3.414-5.109t-1.266-6.211zM 708,16q0,3.266 1.609,6.023t 4.367,4.367t 6.023,1.609t 6.023-1.609 t 4.367-4.367t 1.609-6.023t-1.609-6.023t-4.367-4.367t-6.023-1.609t-6.023,1.609t-4.367,4.367t-1.609,6.023zM 714.039,18.391q-0.117-0.594 0.117-1.156t 0.734-0.898t 1.109-0.336l 2,0 l0-6 q0-0.828 0.586-1.414t 1.414-0.586t 1.414,0.586t 0.586,1.414l0,6 l 2,0 q 0.609,0 1.117,0.336t 0.727,0.898q 0.234,0.563 0.117,1.156t-0.539,1.031 l-4,4q-0.578,0.578 -1.422,0.578q-0.828,0 -1.406-0.578l-4-4q-0.438-0.438 -0.555-1.031z"></path><path d="M 768,16q0-3.25 1.266-6.219t 3.414-5.109t 5.109-3.406t 6.211-1.266q 3.266,0 6.227,1.266t 5.102,3.406t 3.406,5.102t 1.266,6.227q0,3.25 -1.266,6.211t-3.406,5.109t-5.109,3.414t-6.219,1.266t-6.211-1.266t-5.109-3.414t-3.414-5.109t-1.266-6.211zM 772,16q0,3.266 1.609,6.023t 4.367,4.367t 6.023,1.609t 6.023-1.609 t 4.367-4.367t 1.609-6.023t-1.609-6.023t-4.367-4.367t-6.023-1.609t-6.023,1.609t-4.367,4.367t-1.609,6.023zM 776,16q0-0.844 0.578-1.422l 4-4q 0.438-0.422 1.031-0.539t 1.156,0.117q 0.563,0.219 0.898,0.727t 0.336,1.117l0,2 l 6,0 q 0.828,0 1.414,0.586t 0.586,1.414t-0.586,1.414t-1.414,0.586l-6,0 l0,2  q0,0.594 -0.336,1.102t-0.898,0.742t-1.156,0.117t-1.031-0.555l-4-4q-0.578-0.578 -0.578-1.406z"></path><path d="M 832,16q0-3.25 1.266-6.219t 3.414-5.109t 5.109-3.406t 6.211-1.266q 3.266,0 6.227,1.266t 5.102,3.406t 3.406,5.102t 1.266,6.227q0,3.25 -1.266,6.211t-3.406,5.109t-5.109,3.414t-6.219,1.266t-6.211-1.266t-5.109-3.414t-3.414-5.109t-1.266-6.211zM 836,16q0,3.266 1.609,6.023t 4.367,4.367t 6.023,1.609t 6.023-1.609 t 4.367-4.367t 1.609-6.023t-1.609-6.023t-4.367-4.367t-6.023-1.609t-6.023,1.609t-4.367,4.367t-1.609,6.023zM 840,16q0-0.828 0.586-1.414t 1.414-0.586l 6,0 l0-2 q0-0.609 0.336-1.109t 0.898-0.734t 1.156-0.117t 1.031,0.539l 4,4q 0.578,0.578 0.578,1.422q0,0.828 -0.578,1.406l-4,4q-0.438,0.438 -1.031,0.555t-1.156-0.117 q-0.563-0.219 -0.898-0.727t-0.336-1.117l0-2 l-6,0 q-0.828,0 -1.414-0.586t-0.586-1.414z"></path><path d="M 896,22q0,2.484 1.758,4.242t 4.242,1.758l 20,0 q 2.484,0 4.242-1.758t 1.758-4.242l0-12 q0-2.484 -1.758-4.242t-4.242-1.758l-20,0 q-2.484,0 -4.242,1.758t-1.758,4.242l0,12 zM 900,20l0-8 l 12,8l 12-8l0,7.984 l-6-2l 5.422,5.422q-0.594,0.594 -1.422,0.594l-20,0 q-0.844,0 -1.406-0.594 l 5.406-5.406zM 900.734,8.484q 0.563-0.484 1.266-0.484l 20,0 q 0.703,0 1.266,0.484l-11.266,7.516z"></path><path d="M 960,16l 4,0 l 12-13.719l 12,13.719l 4,0 l-14-16l-4,0 zM 964,32l 8,0 l0-10 q0-0.828 0.586-1.414t 1.414-0.586l 4,0 q 0.828,0 1.414,0.586t 0.586,1.414l0,10 l 8,0 l0-13.422 l-12-13.25l-12,13.25l0,13.422 zM 986,6.109l 4,4.563l0-8.672 l-4,0 l0,4.109 z"></path><path d="M 30.72,70.869c-1.085,0.482-2.248,0.805-3.47,0.952c 1.248-0.747, 2.206-1.931, 2.656-3.341c-1.166,0.691-2.459,1.195-3.834,1.466
	c-1.102-1.174-2.672-1.907-4.41-1.907c-3.336,0-6.040,2.704-6.040,6.038c0,0.474, 0.053,0.934, 0.157,1.376
	c-5.019-0.251-9.47-2.656-12.448-6.31C 2.81,70.034, 2.51,71.072, 2.51,72.179c0,2.096, 1.067,3.944, 2.688,5.027
	c-0.99-0.032-1.922-0.302-2.736-0.755c0,0.026,0,0.050,0,0.075c0,2.926, 2.083,5.366, 4.845,5.923c-0.506,0.138-1.040,0.211-1.592,0.211
	c-0.389,0-0.766-0.037-1.136-0.107c 0.768,2.4, 3,4.146, 5.642,4.194c-2.067,1.621-4.67,2.586-7.501,2.586
	c-0.488,0-0.968-0.029-1.44-0.085c 2.672,1.714, 5.846,2.714, 9.259,2.714c 11.109,0, 17.184-9.203, 17.184-17.186
	c0-0.261-0.005-0.522-0.018-0.781C 28.886,73.144, 29.909,72.080, 30.72,70.869z"></path><path d="M 90.32,66.24L 69.68,66.24 C 67.789,66.24, 66.24,67.789, 66.24,69.68l0,20.64 c0,1.893, 1.549,3.438, 3.438,3.438l 10.438,0 l0-9.867 l-3.296,0 L 76.821,79.594 l 3.296,0 L 80.117,77.44 
	c0-3.32, 2.451-5.92, 5.581-5.92l 3.037,0 l0,4.854 l-2.718,0 c-0.71,0-0.918,0.408-0.918,0.971l0,2.246 l 3.637,0 l0,4.299 l-3.637,0 L 85.098,93.76 l 5.221,0 
	c 1.893,0, 3.438-1.547, 3.438-3.438L 93.757,69.68 C 93.76,67.789, 92.213,66.24, 90.32,66.24z"></path><path d="M 131.184,72.942c0,2.389, 0.798,4.115, 2.371,5.128c 1.288,0.83, 2.784,0.955, 3.562,0.955c 0.189,0, 0.339-0.008, 0.445-0.014
	c0,0-0.246,1.605, 0.944,3.194l-0.054-0.002c-2.062,0-8.79,0.432-8.79,5.963c0,5.627, 6.179,5.912, 7.418,5.912
	c 0.098,0, 0.154-0.002, 0.154-0.002c 0.014,0, 0.102,0.003, 0.253,0.003c 0.795,0, 2.851-0.099, 4.762-1.029
	c 2.477-1.202, 3.734-3.294, 3.734-6.216c0-2.824-1.914-4.504-3.312-5.733c-0.853-0.749-1.59-1.395-1.59-2.024
	c0-0.64, 0.538-1.122, 1.219-1.731c 1.101-0.986, 2.141-2.389, 2.141-5.042c0-2.333-0.302-3.898-2.166-4.89
	c 0.195-0.099, 0.882-0.171, 1.222-0.219c 1.010-0.138, 2.486-0.294, 2.486-1.118L 145.981,65.92 L 138.624,65.92 C 138.55,65.922, 131.184,66.195, 131.184,72.942z
	 M 143.061,87.363c 0.141,2.25-1.784,3.91-4.674,4.12c-2.934,0.216-5.352-1.106-5.493-3.355c-0.067-1.080, 0.406-2.138, 1.336-2.981
	c 0.944-0.853, 2.237-1.379, 3.646-1.485c 0.166-0.010, 0.331-0.018, 0.496-0.018C 141.088,83.645, 142.928,85.242, 143.061,87.363z M 141.139,71.402
	c 0.722,2.539-0.368,5.194-2.104,5.683C 138.835,77.141, 138.629,77.17, 138.421,77.17c-1.592,0-3.168-1.61-3.752-3.827
	C 134.342,72.096, 134.368,71.008, 134.742,69.96C 135.11,68.931, 135.771,68.234, 136.603,68c 0.2-0.058, 0.408-0.085, 0.616-0.085
	C 139.139,67.915, 140.374,68.712, 141.139,71.402z M 153.538,76.931l0-4.8 l-3.040,0 l0,4.8 l-4.8,0 l0,3.040 l 4.8,0 l0,4.8 l 3.040,0 l0-4.8 l 4.8,0 l0-3.040 L 153.538,76.931 z"></path><path d="M 205.786,85.165C 204.946,89.57, 203.92,93.794, 200.88,96c-0.938-6.659, 1.378-11.659, 2.453-16.968
	c-1.834-3.088, 0.221-9.299, 4.090-7.768c 4.76,1.883-4.122,11.477, 1.84,12.675c 6.226,1.251, 8.766-10.8, 4.907-14.718
	C 208.592,63.56, 197.933,69.090, 199.245,77.19c 0.318,1.981, 2.365,2.582, 0.818,5.315c-3.57-0.79-4.635-3.606-4.498-7.36
	C 195.786,69.003, 201.085,64.702, 206.4,64.107c 6.723-0.754, 13.032,2.467, 13.901,8.79c 0.981,7.136-3.032,14.866-10.222,14.309
	C 208.131,87.058, 207.314,86.093, 205.786,85.165z"></path><path d="M 271.304,75.874C 269.131,72.010, 266.808,68.861, 266.637,68.63C 263.131,70.286, 260.514,73.515, 259.699,77.408C 260.029,77.414, 265.267,77.477, 271.304,75.874
	z M 272.87,80.096c 0.166-0.053, 0.33-0.101, 0.498-0.149c-0.315-0.715-0.661-1.43-1.021-2.136c-6.474,1.936-12.686,1.797-12.907,1.79
	C 259.435,79.734, 259.43,79.866, 259.43,80c0,3.234, 1.222,6.178, 3.226,8.405c-0.003-0.003-0.010-0.011-0.010-0.011
	S 266.088,82.291, 272.87,80.096z M 264.274,89.909l 0.003-0.005c-0.094-0.074-0.194-0.139-0.285-0.216
	C 264.158,89.822, 264.274,89.909, 264.274,89.909z M 268.989,67.795C 268.978,67.798, 268.966,67.8, 268.957,67.803C 268.974,67.798, 268.987,67.797, 268.989,67.795
	L 268.989,67.795z M 280.302,70.566c-2.214-1.95-5.118-3.136-8.301-3.136c-1.022,0-2.013,0.125-2.963,0.355
	c 0.19,0.253, 2.55,3.389, 4.701,7.333C 278.478,73.341, 280.27,70.618, 280.302,70.566z M 272.002,94.72C 263.87,94.72, 257.28,88.13, 257.28,80
	s 6.59-14.72, 14.722-14.72c 8.13,0, 14.718,6.59, 14.718,14.72S 280.131,94.72, 272.002,94.72z M 274.139,82.056c-7.378,2.571-9.814,7.742-9.862,7.848
	c 2.131,1.666, 4.81,2.666, 7.725,2.666c 1.741,0, 3.398-0.354, 4.906-0.994c-0.186-1.102-0.917-4.954-2.685-9.549
	C 274.195,82.038, 274.166,82.046, 274.139,82.056z M 274.704,76.99c 0.294,0.6, 0.574,1.208, 0.835,1.824c 0.094,0.218, 0.182,0.434, 0.272,0.65
	c 4.342-0.546, 8.616,0.381, 8.755,0.411c-0.029-2.982-1.094-5.718-2.858-7.859C 281.683,72.053, 279.667,74.965, 274.704,76.99z M 276.578,81.448
	c 1.651,4.536, 2.32,8.227, 2.446,8.979c 2.824-1.906, 4.829-4.928, 5.387-8.434C 284.163,81.912, 280.642,80.797, 276.578,81.448z"></path><path d="M 342,84c-2,2-2,4-4,4s-4-2-6-4s-4-4-4-6s 2-2, 4-4S 328,66, 326,66S 320,72, 320,72c0,4, 4.109,12.109, 8,16
	s 12,8, 16,8c0,0, 6-4, 6-6S 344,82, 342,84z"></path></svg>