<?xml version="1.0" encoding="UTF-8" standalone="no"?>
<!-- Created with Inkscape (http://www.inkscape.org/) -->
<svg id="svg2" xmlns:rdf="http://www.w3.org/1999/02/22-rdf-syntax-ns#" xmlns="http://www.w3.org/2000/svg" height="200" width="300" version="1.1" xmlns:cc="http://creativecommons.org/ns#" xmlns:xlink="http://www.w3.org/1999/xlink" xmlns:dc="http://purl.org/dc/elements/1.1/">
 <defs id="defs4">
  <linearGradient id="linearGradient3833" y2="251.35" gradientUnits="userSpaceOnUse" x2="329.73" y1="147.57" x1="205.95">
   <stop id="stop3837" stop-color="#2d2d2d" offset="0"/>
   <stop id="stop3839" stop-color="#2d2d2d" stop-opacity="0" offset="1"/>
  </linearGradient>
  <filter id="filter3888" height="1.5576763" width="1.5576763" y="-0.27883817" x="-0.27883817">
   <feGaussianBlur id="feGaussianBlur3890" stdDeviation="12.651637"/>
  </filter>
 </defs>
 <metadata id="metadata7">
  <rdf:RDF>
   <cc:Work rdf:about="">
    <dc:format>image/svg+xml</dc:format>
    <dc:type rdf:resource="http://purl.org/dc/dcmitype/StillImage"/>
    <dc:title/>
   </cc:Work>
  </rdf:RDF>
 </metadata>
 <g id="layer1" transform="translate(0,-852.36218)">
  <path id="path2985" stroke-linejoin="bevel" d="M201,63a71,71,0,1,1,-142,0,71,71,0,1,1,142,0z" transform="translate(18.5,885.86218)" stroke="#FFF" stroke-miterlimit="4" stroke-dasharray="none" stroke-width="1" fill="#717171"/>
  <rect id="rect2987" height="200" width="300" y="852.36" x="0" fill="#4a4a4a"/>
  <path id="path3825" d="M101.08,149.19,202.43,47.838,348.11,180c-42.446,24.506-65.972,66.309-108.42,90.815z" transform="translate(0,852.36218)" fill="url(#linearGradient3833)"/>
  <path id="path3767" d="m191.63,246.67a54.447,54.447,0,1,1,-108.89,0,54.447,54.447,0,1,1,108.89,0z" transform="matrix(1.2987013,0,0,1.2987013,-25.419107,633.10361)" fill="#000"/>
  <path id="path3759" d="m191.63,246.67a54.447,54.447,0,1,1,-108.89,0,54.447,54.447,0,1,1,108.89,0z" transform="matrix(1.2987013,0,0,1.2987013,-25.419107,629.83584)" fill="#2d2d2d"/>
  <path id="path3761" d="m191.63,246.67a54.447,54.447,0,1,1,-108.89,0,54.447,54.447,0,1,1,108.89,0z" transform="matrix(1.1558442,0,0,1.1558442,-5.8221488,665.07428)" fill="#292525"/>
  <g id="text3771" style="letter-spacing:0px;word-spacing:0px;" font-weight="normal" font-size="58.84187698px" font-style="normal" font-stretch="normal" line-height="125%" font-variant="normal" font-family="olivier" fill="#f5f5f5">
   <path id="path3842" style="" d="m131.68,951.1c0.11849,0.23585,0.12866,0.74613,0.0305,1.5308-0.0982,0.78474-0.23557,1.6182-0.41212,2.5005-0.17661,0.8823-0.36306,1.7059-0.55936,2.4709-0.19636,0.76498-0.35319,1.2259-0.47048,1.3827-0.78535,1.02-1.6682,2.0202-2.6487,3.0006-0.98049,0.98046-2.0986,1.7257-3.3544,2.2357-2.0783,0.82483-4.1275,1.1684-6.1476,1.0307-2.0202-0.13767-3.9033-0.65753-5.6493-1.5596-1.746-0.90204-3.3251-2.1279-4.7371-3.6776s-2.5496-3.305-3.4128-5.2659c-0.82363-1.8436-1.3629-3.9619-1.6179-6.355s-0.21579-4.7957,0.11762-7.208c0.3334-2.4122,0.961-4.6775,1.8828-6.7959,0.92179-2.1183,2.1872-3.8251,3.7961-5.1205,1.6868-1.3336,3.393-2.2063,5.1187-2.6182,1.7257-0.41178,3.3927-0.52939,5.0011-0.35286,1.6083,0.17662,3.0991,0.57886,4.4722,1.2067,1.3731,0.62794,2.5301,1.2944,3.4711,1.9995,0.27531,0.19636,0.75626,0.54952,1.4428,1.0595,0.68653,0.51001,1.2552,1.0493,1.7059,1.6179,0.45069,0.56868,0.62697,1.0688,0.52883,1.5003-0.0982,0.4316-0.77458,0.66714-2.0292,0.70661-0.86317,0.0395-1.6871-0.0191-2.4718-0.17598-0.78475-0.15679-1.5692-0.34325-2.3533-0.55936-0.78415-0.21605-1.5686-0.41238-2.3533-0.58899-0.78474-0.17655-1.6087-0.26484-2.4718-0.26487-4.5108,0.00003-7.296,3.0797-8.3554,9.2389-0.15684,0.94098-0.30408,2.0295-0.44175,3.2655-0.13768,1.2361-0.21609,2.5308-0.23523,3.8841-0.0192,1.3534,0.0497,2.6771,0.2065,3.9712,0.15682,1.2941,0.44114,2.4709,0.85297,3.5304,0.4118,1.0595,0.98044,1.9226,1.7059,2.5894,0.72546,0.66681,1.6766,1.0397,2.8534,1.1187,1.0594,0.0778,2.0893-0.05,3.0895-0.38338,1.0002-0.3334,1.9612-0.78443,2.883-1.3531,0.92178-0.56864,1.8044-1.1864,2.6478-1.8532,0.84336-0.6668,1.638-1.3336,2.3838-2.0004,0.11729-0.11851,0.42137-0.48184,0.91222-1.09,0.4908-0.60813,1.0499-1.1866,1.6772-1.7356,0.62728-0.54888,1.2157-0.96069,1.7652-1.2354,0.54946-0.27473,0.94152-0.15711,1.1762,0.35286,0.11849,0.23585,0.17774,0.36364,0.17777,0.38338-0.00003,0.0198-0.01,0.00001-0.0296-0.0593-0.0198-0.0592-0.0494-0.12808-0.0889-0.20651-0.0395-0.0784-0.0593-0.1176-0.0593-0.11761z"/>
   <path id="path3844" style="" d="m149.89,940.21c-0.11733,0.51001-0.45044,0.9317-0.99931,1.2651-0.54891,0.33343-1.1765,0.67671-1.8828,1.0298-0.70633,0.35318-1.4321,0.74554-2.1773,1.1771-0.74524,0.43159-1.3728,1.0005-1.8828,1.7068-0.78533,1.1373-1.3348,2.4904-1.6485,4.0592-0.31366,1.5689-0.46061,3.0692-0.44085,4.501,0.0198,1.4318,0.19632,2.6675,0.52974,3.7072,0.33339,1.0397,0.75508,1.5596,1.2651,1.5596,0.62729,0.00001,1.2842-0.29419,1.9708-0.88259,0.68655-0.58839,1.3046-1.2651,1.8541-2.03,0.54947-0.76496,1.0005-1.5494,1.3531-2.3533,0.35254-0.80387,0.52882-1.4219,0.52884-1.8541-0.00002-0.43096-0.0195-1.0289-0.0584-1.7939-0.0389-0.76496-0.029-1.52,0.0296-2.2653,0.0586-0.7452,0.17626-1.3926,0.35285-1.9421,0.17656-0.54947,0.48034-0.84397,0.91133-0.88349,0.43215-0.0383,0.9523-0.13586,1.5605-0.2927,0.60813-0.15681,1.1866-0.17656,1.7356-0.0593,0.54886,0.11734,0.99001,0.49953,1.3234,1.1466s0.46118,1.7553,0.38339,3.3248c-0.11854,3.1772,0.038,5.5799,0.46958,7.208,0.43154,1.6281,1.2752,2.5798,2.531,2.8552,0.86312,0.15683,1.638-0.0494,2.3246-0.61862,0.68653-0.56924,1.3043-1.2067,1.8532-1.9124,0.54886-0.7057,1.0196-1.3432,1.4123-1.9124,0.39263-0.56923,0.70628-0.79459,0.94096-0.67609,0.27531,0.11734,0.37347,0.60756,0.29449,1.4707-0.079,0.86315-0.37324,1.834-0.88259,2.9126-0.50941,1.0786-1.2645,2.1572-2.2653,3.2359-1.0008,1.0786-2.2854,1.9124-3.8536,2.5014-0.82365,0.31365-1.5886,0.47047-2.2949,0.47047-0.70633,0-1.3438-0.0982-1.9124-0.2945-0.56866-0.19633-1.0688-0.47107-1.5003-0.82423-0.43158-0.35315-0.82395-0.74521-1.1771-1.1762-0.78535-0.98045-1.4132-2.1968-1.8837-3.6489-0.39148,0.94215-0.94037,1.7664-1.6467,2.4727-0.58901,0.62731-1.3543,1.2058-2.2958,1.7356-0.94156,0.52973-2.0989,0.83351-3.472,0.91132-1.3719,0.0395-2.666-0.39176-3.8823-1.2938s-2.1872-2.118-2.9126-3.648c-0.72547-1.5299-1.1178-3.305-1.1771-5.3252s0.38219-4.1484,1.3243-6.3846c0.6273-1.4521,1.4509-2.6882,2.4709-3.7082,1.02-1.0199,2.1084-1.8534,3.2655-2.5005,1.157-0.64703,2.3141-1.1175,3.4711-1.4114,1.157-0.29387,2.1967-0.46057,3.1192-0.5001,0.92238-0.0395,1.6679,0.0291,2.2366,0.20561,0.56862,0.1766,0.81344,0.42172,0.73444,0.73534z"/>
   <path id="path3846" style="" d="m180.26,924.21c-0.00002,0.58904-0.28434,0.95207-0.85296,1.0891-0.56866,0.13712-1.2157,0.21553-1.9412,0.23524-0.72549,0.0198-1.4414,0.0982-2.1477,0.23524-0.70632,0.13711-1.1966,0.50014-1.4707,1.0891-0.27536,0.58783-0.50132,1.3034-0.67788,2.1468-0.17659,0.84342-0.32354,1.7655-0.44085,2.7663-0.11733,1.0008-0.19575,2.0406-0.23524,3.1192-0.0395,1.0786-0.0593,2.1471-0.0593,3.2053-0.00001,2.4326,0.0784,5.0418,0.23524,7.8275,0.43216-0.1185,0.98164-0.25617,1.6485-0.41301,0.54828-0.11731,1.2345-0.25438,2.0588-0.41122,0.82421-0.15681,1.805-0.33339,2.9423-0.52974,1.1768-0.1568,2.1084-0.1568,2.795,0,0.68653,0.15685,1.1474,0.38251,1.3827,0.67699,0.23522,0.29451,0.2451,0.60846,0.0296,0.94185-0.21551,0.33342-0.6375,0.55878-1.266,0.67608-1.2941,0.31367-2.5098,0.65695-3.6471,1.0298-1.1373,0.37293-2.1375,0.73596-3.0006,1.0891-1.02,0.43099-1.9226,0.8428-2.7079,1.2354,0.19632,3.0204,0.27473,5.766,0.23524,8.2369-0.00002,1.0595-0.0293,2.1285-0.088,3.2071s-0.14696,2.0693-0.26487,2.9719c-0.11793,0.90265-0.28463,1.6874-0.50011,2.3542-0.21549,0.66681-0.46031,1.1373-0.73444,1.4114-0.5495,0.50998-1.1478,0.95142-1.7948,1.3243-0.64706,0.3729-1.2552,0.61802-1.8244,0.73534-0.56925,0.11732-1.0696,0.0877-1.5012-0.0889-0.43158-0.17658-0.70602-0.55877-0.82334-1.1466-0.0778-0.31365-0.13648-0.7943-0.17598-1.442-0.0395-0.64766-0.0691-1.3734-0.0889-2.1773-0.0198-0.80388-0.0198-1.6766,0-2.6182,0.0197-0.94155,0.0296-1.8636,0.0296-2.7663,0.0395-2.1572,0.079-4.4911,0.11852-7.0015-0.15803,0.0778-0.31545,0.176-0.47227,0.2945-0.35316,0.23465-0.84339,0.37173-1.4707,0.41122-0.86314,0.11733-1.5105-0.11821-1.9421-0.70661-0.43157-0.58839-0.43127-1.3728,0.0009-2.3533,0.19633-0.47046,0.48065-0.90173,0.85296-1.2938,0.37231-0.39205,0.77455-0.74551,1.2067-1.0604,0.47047-0.35194,0.99961-0.64584,1.5874-0.8817-0.19514-3.0204-0.2538-5.9234-0.17598-8.7092-0.00001-1.1768,0.0392-2.3928,0.11762-3.648,0.0784-1.2552,0.19602-2.481,0.35285-3.6776,0.15682-1.1965,0.35316-2.3242,0.589-3.3831,0.23583-1.0588,0.52973-1.9809,0.88169-2.7663,0.58899-1.2941,1.3249-2.2646,2.2078-2.9117,0.88288-0.64701,1.8146-1.049,2.795-1.2058,0.98045-0.15678,1.9609-0.14721,2.9414,0.0287,0.98044,0.17602,1.863,0.44059,2.6478,0.7937,0.78471,0.3532,1.4222,0.72611,1.9124,1.1187,0.49021,0.39271,0.73532,0.70636,0.73534,0.94095z"/>
   <path id="path3848" style="" d="m183.79,942.63c0.54948-1.0594,1.2752-1.9816,2.1773-2.7663,0.90204-0.7847,1.8927-1.4222,2.9719-1.9124s2.2168-0.85293,3.4128-1.0882c1.1959-0.23521,2.3631-0.35283,3.5016-0.35286,1.1768,0.0779,2.1869,0.46003,3.0303,1.1466,0.84337,0.68659,1.4416,1.5692,1.7948,2.6478,0.35314,1.0786,0.42168,2.2851,0.20561,3.6193-0.2161,1.3342-0.79462,2.6879-1.7356,4.061-1.02,1.4905-2.1088,2.6083-3.2664,3.3535-1.1576,0.74523-2.2267,1.2747-3.2071,1.5883-1.1373,0.39267-2.2548,0.56925-3.3526,0.52973-0.0395,1.4904,0.11732,2.7654,0.47048,3.8249,0.15682,0.47048,0.34297,0.91163,0.55847,1.3234,0.21547,0.41182,0.49979,0.77455,0.85296,1.0882,0.35315,0.31366,0.78471,0.53932,1.2947,0.67698,0.50997,0.13768,1.0984,0.14785,1.7652,0.0305,1.4126-0.23583,2.5601-0.75599,3.4424-1.5605,0.88228-0.80448,1.6176-1.6185,2.206-2.4422,0.58838-0.82362,1.069-1.5395,1.442-2.1477,0.37289-0.60814,0.73592-0.8338,1.0891-0.67699,0.43095,0.19635,0.65631,0.68687,0.67608,1.4716,0.0197,0.78474-0.16642,1.7068-0.55846,2.7663-0.39209,1.0595-0.97061,2.148-1.7356,3.2655s-1.7359,2.0687-2.9126,2.8534c-1.1768,0.78473-2.5302,1.3243-4.0601,1.6188-1.53,0.2945-3.2365,0.14725-5.1196-0.44174-1.53-0.47048-2.8049-1.2157-3.8249-2.2357s-1.8241-2.1968-2.4125-3.5304-0.98076-2.7654-1.1771-4.2953c-0.19633-1.5299-0.22566-3.05-0.088-4.5602,0.13767-1.5102,0.43187-2.9518,0.88259-4.325,0.45072-1.3731,1.0095-2.5499,1.6763-3.5304zm5.4733,6.4125c0.50997-0.0778,1.0786-0.23462,1.7059-0.47047,0.54948-0.19632,1.1478-0.49051,1.7948-0.88259,0.64704-0.39205,1.3435-0.94124,2.0893-1.6476,0.70629-0.66679,1.187-1.3138,1.442-1.9412,0.25498-0.62728,0.40163-1.157,0.43995-1.5892,0.0395-0.50996-0.0389-0.98043-0.23524-1.4114-0.5495-0.1568-1.1379-0.1568-1.7652,0-0.5495,0.15685-1.1576,0.4705-1.8244,0.94095-0.66682,0.4705-1.3534,1.2157-2.0597,2.2357-0.5483,0.78414-0.94006,1.4803-1.1753,2.0884-0.23525,0.60816-0.39237,1.1086-0.47137,1.5012-0.079,0.4705-0.0593,0.86256,0.0593,1.1762z"/>
  </g>
  <path id="path3783" fill="#FFF" d="M152.75,39.438c-32.24,0-58.406,26.133-58.406,58.374,0,32.238,26.166,58.378,58.406,58.378s58.37-26.14,58.37-58.378c0-32.241-26.13-58.374-58.37-58.374zm0,2.156c31.05,0,56.19,25.171,56.19,56.218,0,31.048-25.14,56.218-56.19,56.218s-56.219-25.17-56.219-56.218c0-31.047,25.169-56.218,56.219-56.218z" transform="translate(0,852.36218)"/>
  <path id="path3792" fill="#f5f5f5" d="m138.59,978.89c0.14896,7.7973,3.4168,14.456,8.0625,17.438-6.218,0.10811-10.688,0.39021-10.688,0.71875,0,0.32285,4.2951,0.57544,10.344,0.6875,0.0588,0.2543,0.28982,0.4375,0.5625,0.4375h10.875c0.27267,0,0.5037-0.1832,0.5625-0.4375,6.0341-0.11238,10.344-0.36514,10.344-0.6875,0-0.33432-4.672-0.61493-11.062-0.71875,4.643-2.983,7.9136-9.643,8.0625-17.438h-27.062z"/>
  <path id="path3850" opacity="0.08438819" d="M152.75,27.125c-39.05,0-70.719,31.635-70.719,70.687,0,20.718,8.901,39.348,23.089,52.278l96.66-103.18c-12.71-12.25-29.98-19.781-49.03-19.781z" transform="translate(0,852.36218)" fill="#fffafa"/>
  <path id="path3858" opacity="0.38818563" d="m191.63,246.67a54.447,54.447,0,1,1,-108.89,0,54.447,54.447,0,1,1,108.89,0z" transform="matrix(1.1558442,0,0,1.1558442,-5.8221542,665.07427)" filter="url(#filter3888)" fill="#FFF"/>
 </g>
</svg>
